<?xml version="1.0" encoding="UTF-8" standalone="no"?>
<svg width="579px" height="345px" viewBox="0 0 579 345" version="1.1" xmlns="http://www.w3.org/2000/svg" xmlns:xlink="http://www.w3.org/1999/xlink">
    <!-- Generator: Sketch 3.7 (28169) - http://www.bohemiancoding.com/sketch -->
    <title>Imported Layers</title>
    <desc>Created with Sketch.</desc>
    <defs></defs>
    <g id="Page-1" stroke="none" stroke-width="1" fill="none" fill-rule="evenodd">
        <g id="Imported-Layers" fill="#000000">
            <path d="M142.531,86.31 C142.778,84.826 142.925,83.317 143.289,81.862 C146.198,70.232 149.573,58.698 151.914,46.956 C153.15,40.752 153.335,34.122 152.717,27.81 C151.421,14.567 143.444,7.58 130.145,6.948 C119.688,6.451 109.964,9.491 100.642,13.711 C70.752,27.245 47.125,48.077 29.419,75.658 C23.891,84.268 19.305,93.33 16.771,103.307 C12.347,120.728 15.974,136.609 26.02,151.263 C34.149,163.119 44.6,172.753 55.177,182.329 C68.657,194.534 82.199,206.703 95.084,219.521 C104.082,228.472 111.18,239.003 115.068,251.363 C121.361,271.37 114.289,288.318 95.296,297.239 C89.15,300.125 82.476,302.153 75.838,303.672 C61.978,306.844 47.866,307.819 33.687,306.278 C29.888,305.865 26.079,304.957 22.441,303.765 C14.405,301.132 9.882,294.54 10.179,286.144 C10.42,279.319 12.94,273.198 16.649,267.56 C17.394,266.427 18.479,265.432 19.6,264.649 C21.804,263.11 23.509,263.732 23.584,266.374 C23.662,269.091 23.166,271.886 22.517,274.548 C21.758,277.655 20.266,280.593 19.621,283.714 C18.553,288.888 20.446,292.109 25.646,292.718 C33.486,293.635 41.42,294.112 49.314,294.116 C60.056,294.122 70.747,292.937 81.012,289.577 C85.04,288.259 89.038,286.435 92.572,284.114 C99.058,279.855 101.81,273.581 100.458,265.802 C98.845,256.526 94.61,248.405 89.226,240.799 C79.622,227.234 67.441,216.111 55.405,204.828 C42.523,192.751 29.19,181.109 18.496,166.884 C7.947,152.852 0.789,137.594 0.656,119.637 C0.539,103.763 5.816,89.473 14.092,76.32 C34.354,44.118 62.335,20.979 97.655,6.857 C108.064,2.695 118.872,-0.022 130.264,0.905 C147.18,2.282 156.797,12.22 157.521,29.205 C158,40.434 154.919,51.03 151.453,61.545 C148.806,69.576 146.26,77.641 143.65,85.685 C143.561,85.96 143.278,86.172 143.085,86.413 C142.901,86.379 142.716,86.345 142.531,86.31" id="Fill-1"></path>
            <path d="M226.363,243.317 C226.363,243.317 226.016,237.839 211.696,243.354 C197.377,248.87 181.416,264.244 165.02,239.619 C155.779,225.739 153.755,218.09 153.748,214.056 C178.944,191.234 209.845,161.984 214.146,157.661 C221.129,150.643 226.959,141.995 221.327,136.393 C215.696,130.789 192.098,138.716 171.144,156.77 C150.19,174.823 138.707,195.736 137.5,212.75 L123.567,225.14 C123.567,225.14 147.533,89.164 140.494,97.597 C140.494,97.597 112.825,228.417 112.834,231.917 C112.843,235.417 112.119,245.919 121.109,241.646 C123.694,240.417 131.916,233.523 142.478,224.164 C144.151,229.144 158.778,269.201 194.412,262.544 C232.394,255.448 226.363,243.317 226.363,243.317 L226.363,243.317 Z M192.485,159.794 C192.717,163.992 150.074,202.437 150.074,202.437 C149.694,188.881 192.101,152.847 192.485,159.794 L192.485,159.794 Z" id="Fill-2"></path>
            <path d="M271.173,175.794 C271.173,175.794 278.327,162.774 266.333,148.074 C256.381,135.875 239.839,162.386 235.839,169.09 C231.839,175.794 213.973,209.669 225.573,235.78 C237.173,261.891 276,233.027 283.506,224.488 C302.028,203.42 313.347,195.135 314.506,192.379 C315.665,189.622 315.506,166.62 295.173,189.556 C274.839,212.491 274.667,215.909 259.839,226.958 C245.607,237.564 227.506,236.156 238.839,195.39 C250.173,154.623 269.506,148.272 268.304,169.796 C267.721,180.233 271.173,175.794 271.173,175.794" id="Fill-3"></path>
            <path d="M312.661,142.631 C285.471,151.905 286.859,173.932 295.383,183.204 C296.388,184.297 297.367,185.337 298.332,186.352 C295.132,190.002 292.893,192.487 292.893,192.487 C284.215,210.272 297.755,202.437 302.5,202.437 C304.164,202.437 306.582,200.6 309.392,197.612 C320.991,209.427 326.381,216.84 320.75,235 C314.936,253.75 330.689,251.175 334.5,241.5 C338.153,232.226 340.25,226.5 336.5,212.75 C333.77,202.74 325.02,194.5 317.194,187.896 C327.178,174.053 337.965,154.698 338.691,150.307 C339.852,143.3 339.852,133.357 312.661,142.631 L312.661,142.631 Z M319.744,159.529 C317.696,163.297 311.57,170.883 305.685,177.828 C304.223,176.219 303.343,174.789 303.349,173.543 C303.375,169 306.875,160.25 317.5,153.875 C319.666,152.575 324.492,150.794 319.744,159.529 L319.744,159.529 Z" id="Fill-4"></path>
            <path d="M395.287,212.989 C395.287,212.989 410.179,193.381 418.179,175.593 C426.179,157.804 431.778,148.964 438.287,149.323 C445.879,149.741 435.179,178.554 431.429,189.054 C427.679,199.554 392.21,315.018 383.62,337.823 C380.931,344.962 359.012,351.304 367.012,327.304 C375.012,303.304 413.012,209.988 413.012,207.979 C413.012,205.97 408.108,213.347 402.06,220.992 C396.012,228.637 389.301,236.328 384.289,234.683 C378.62,232.823 395.287,212.989 395.287,212.989" id="Fill-5"></path>
            <path d="M442.5,171 C442.5,171 444.346,163.333 454.596,157.182 C464.269,151.377 470.096,152.682 478.596,161.182 C487.096,169.682 485.94,186.118 478.596,195.682 C471.252,205.246 490.596,186.996 499.096,167.089 C507.596,147.182 516.971,97.06 521.596,89.833 C529.596,77.333 535.221,74.903 538.096,84.333 C541.8,96.483 525.654,140.724 521.624,148.682 C517.595,156.64 517.396,177.897 516.096,190.682 C514.727,204.152 513.43,232 515.096,236.682 C516.748,241.321 518.596,250.182 506.596,246.682 C494.596,243.182 504.096,188.182 504.096,184.182 C504.096,180.182 501.096,195.533 485.096,208.857 C469.096,222.182 461.736,226.553 456.846,228.708 C440.624,235.86 429.219,237.565 438.946,225.708 C448.672,213.852 474.096,192.182 472.096,179.182 C470.096,166.182 463.644,161.535 457.333,165.629 C452.971,168.458 451.596,173.583 448.942,175.702 C443.132,180.338 436.833,184.167 442.5,171" id="Fill-6"></path>
            <path d="M429.442,116.685 C429.442,116.686 470.768,106.811 487.939,105.653 C505.11,104.495 576.121,94.152 577.868,108.189 C579.614,122.226 569.719,117.424 564.771,116.685 C559.824,115.947 505.692,115.764 487.939,118.071 C470.186,120.379 403.174,126.011 429.442,116.685" id="Fill-7"></path>
            <path d="M385.86,147.25 C385.86,147.25 338.7,229.338 365,235.672 C386.002,240.731 395.145,230.86 395.667,225.5 C397.5,206.667 389.583,221.667 385.167,223.75 C379.107,226.608 367.333,231 371.333,216.333 C375.333,201.667 408.59,124.098 385.86,147.25" id="Fill-8"></path>
            <path d="M326.003,236.636 C326.003,236.636 355.266,225.877 358.741,211.146 C362.215,196.415 371.427,222.555 365.043,228.14 C358.658,233.725 306.149,265.68 326.003,236.636" id="Fill-9"></path>
            <path d="M414.499,100.78 C414.499,100.78 391.599,107.58 390.806,115.164 C390.013,122.747 396.925,123.532 404.391,119.887 C411.856,116.242 417.89,103.463 414.499,100.78" id="Fill-10"></path>
        </g>
    </g>
</svg>