<svg xmlns="http://www.w3.org/2000/svg" xmlns:xlink="http://www.w3.org/1999/xlink" viewBox="0 0 536.73 128"><defs><style>.cls-1{fill:none;}.cls-2{fill:#ffc107;}.cls-3{fill:#0f9d58;}.cls-4{fill:#bf360c;}.cls-11,.cls-12,.cls-4,.cls-5,.cls-6{opacity:0.2;isolation:isolate;}.cls-5{fill:#263238;}.cls-6{fill:#fff;}.cls-7{fill:url(#radial-gradient);}.cls-8{fill:url(#radial-gradient-2);}.cls-9{fill:#4285f4;}.cls-10{fill:#db4437;}.cls-11{fill:#1a237e;}.cls-12{fill:#3e2723;}.cls-13{fill:url(#radial-gradient-3);}.cls-14{fill:#767676;}</style><radialGradient id="radial-gradient" cx="59.28" cy="2693.09" r="44.26" gradientTransform="matrix(1, 0, 0, -1, 0, 2795.46)" gradientUnits="userSpaceOnUse"><stop offset="0" stop-color="#bf360c" stop-opacity="0.2"/><stop offset="1" stop-color="#bf360c" stop-opacity="0.02"/></radialGradient><radialGradient id="radial-gradient-2" cx="59.15" cy="2692.81" r="44.62" gradientTransform="matrix(1, 0, 0, -1, 0, 2795.46)" gradientUnits="userSpaceOnUse"><stop offset="0" stop-color="#263238" stop-opacity="0.2"/><stop offset="1" stop-color="#263238" stop-opacity="0.02"/></radialGradient><radialGradient id="radial-gradient-3" cx="-1" cy="2794.46" r="134.35" gradientTransform="matrix(1, 0, 0, -1, 0, 2795.46)" gradientUnits="userSpaceOnUse"><stop offset="0" stop-color="#fff" stop-opacity="0.1"/><stop offset="1" stop-color="#fff" stop-opacity="0"/></radialGradient></defs><title>gdg_dev_fest_2016</title><g id="Layer_2" data-name="Layer 2"><g id="Layer_4" data-name="Layer 4"><g id="_Group_" data-name="&lt;Group&gt;"><g id="_Group_2" data-name="&lt;Group&gt;"><g id="_Group_3" data-name="&lt;Group&gt;"><path id="_Path_" data-name="&lt;Path&gt;" class="cls-1" d="M78.39,58,44.85,0H0L37,64,0,128H44.85L78.39,70A12,12,0,0,0,78.39,58Z"/><polygon id="_Path_2" data-name="&lt;Path&gt;" class="cls-2" points="59.15 102.27 48.52 83.88 23 128 44.85 128 59.44 102.77 59.15 102.27"/><path id="_Path_3" data-name="&lt;Path&gt;" class="cls-1" d="M78.39,58,44.85,0H0L37,64,0,128H44.85L78.39,70A12,12,0,0,0,78.39,58Z"/><polygon id="_Path_4" data-name="&lt;Path&gt;" class="cls-3" points="37.02 64 48.52 83.88 23 128 0 128 37.02 64"/><path id="_Path_5" data-name="&lt;Path&gt;" class="cls-1" d="M78.39,58,44.85,0H0L37,64,0,128H44.85L78.39,70A12,12,0,0,0,78.39,58Z"/><polygon id="_Path_6" data-name="&lt;Path&gt;" class="cls-4" points="44.85 127 23.58 127 23 128 44.85 128 59.44 102.77 59.15 102.27 44.85 127"/><path id="_Path_7" data-name="&lt;Path&gt;" class="cls-1" d="M78.39,58,44.85,0H0L37,64,0,128H44.85L78.39,70A12,12,0,0,0,78.39,58Z"/><polygon id="_Path_8" data-name="&lt;Path&gt;" class="cls-5" points="0.58 127 0 128 23 128 23.58 127 0.58 127"/><path id="_Path_9" data-name="&lt;Path&gt;" class="cls-1" d="M78.39,58,44.85,0H0L37,64,0,128H44.85L78.39,70A12,12,0,0,0,78.39,58Z"/><polygon id="_Path_10" data-name="&lt;Path&gt;" class="cls-6" points="0 128 0.58 128 37.31 64.5 37.02 64 0 128"/><path id="_Path_11" data-name="&lt;Path&gt;" class="cls-1" d="M78.39,58,44.85,0H0L37,64,0,128H44.85L78.39,70A12,12,0,0,0,78.39,58Z"/><polygon id="_Path_12" data-name="&lt;Path&gt;" class="cls-7" points="59.44 102.77 59.44 102.77 48.52 83.88 45.84 88.51 59.44 102.77"/><path id="_Path_13" data-name="&lt;Path&gt;" class="cls-1" d="M78.39,58,44.85,0H0L37,64,0,128H44.85L78.39,70A12,12,0,0,0,78.39,58Z"/><polygon id="_Path_14" data-name="&lt;Path&gt;" class="cls-8" points="45.84 88.51 48.52 83.88 37.02 64 31.53 73.5 45.84 88.51"/><path id="_Path_15" data-name="&lt;Path&gt;" class="cls-1" d="M78.39,58,44.85,0H0L37,64,0,128H44.85L78.39,70A12,12,0,0,0,78.39,58Z"/><g id="_Group_4" data-name="&lt;Group&gt;"><g id="_Group_5" data-name="&lt;Group&gt;"><polygon id="_Path_16" data-name="&lt;Path&gt;" class="cls-9" points="23 0 0 0 59.44 102.77 70.93 82.9 70.94 82.88 23 0"/></g></g><path id="_Path_17" data-name="&lt;Path&gt;" class="cls-1" d="M78.39,58,44.85,0H0L37,64,0,128H44.85L78.39,70A12,12,0,0,0,78.39,58Z"/><path id="_Path_18" data-name="&lt;Path&gt;" class="cls-10" d="M78.39,70a12,12,0,0,0,0-12L44.85,0H23L70.94,82.88Z"/><path id="_Path_19" data-name="&lt;Path&gt;" class="cls-1" d="M78.39,58,44.85,0H0L37,64,0,128H44.85L78.39,70A12,12,0,0,0,78.39,58Z"/><polygon id="_Path_20" data-name="&lt;Path&gt;" class="cls-11" points="70.94 82.88 70.65 82.39 59.44 101.77 0.58 0 0 0 59.44 102.77 70.93 82.9 70.94 82.88"/><path id="_Path_21" data-name="&lt;Path&gt;" class="cls-1" d="M78.39,58,44.85,0H0L37,64,0,128H44.85L78.39,70A12,12,0,0,0,78.39,58Z"/><path id="_Path_22" data-name="&lt;Path&gt;" class="cls-6" d="M44.85,1,78.39,59A12,12,0,0,1,80,64.5,12,12,0,0,0,78.39,58L44.85,0H0L.58,1Z"/><path id="_Path_23" data-name="&lt;Path&gt;" class="cls-1" d="M78.39,58,44.85,0H0L37,64,0,128H44.85L78.39,70A12,12,0,0,0,78.39,58Z"/><path id="_Path_24" data-name="&lt;Path&gt;" class="cls-12" d="M70.94,82.88,78.39,70A12,12,0,0,0,80,63.5,12,12,0,0,1,78.39,69L70.65,82.39Z"/><path id="_Path_25" data-name="&lt;Path&gt;" class="cls-1" d="M78.39,58,44.85,0H0L37,64,0,128H44.85L78.39,70A12,12,0,0,0,78.39,58Z"/><path id="_Path_26" data-name="&lt;Path&gt;" class="cls-13" d="M78.39,58,44.85,0H0L37,64,0,128H44.85L78.39,70A12,12,0,0,0,78.39,58Z"/></g></g></g><g id="_Group_6" data-name="&lt;Group&gt;"><path class="cls-14" d="M176.3,33.17q0,10.5-6.23,16.73-7,7.42-18.41,7.42a25.14,25.14,0,0,1-18.48-7.56,25.3,25.3,0,0,1-7.56-18.62,25.31,25.31,0,0,1,7.56-18.62A25.14,25.14,0,0,1,151.66,5a27.84,27.84,0,0,1,10.43,2,20.85,20.85,0,0,1,8,5.53l-4.62,4.62a15.53,15.53,0,0,0-6-4.37,19.77,19.77,0,0,0-7.87-1.58,18.85,18.85,0,0,0-13.86,5.67,19.73,19.73,0,0,0-5.6,14.35,19.72,19.72,0,0,0,5.6,14.35,18.85,18.85,0,0,0,13.86,5.67A18.64,18.64,0,0,0,164.12,47a16.74,16.74,0,0,0,5.74-11.55h-18.2v-6h24.29A21.55,21.55,0,0,1,176.3,33.17Z"/><path class="cls-14" d="M182.68,56.2V6.08H198q11.48,0,18.44,6.93t7,18.13q0,11.27-7,18.17T198,56.2Zm6.44-44V50H198q8.75,0,13.79-5t5-13.9q0-8.82-5-13.86t-13.79-5Z"/><path class="cls-14" d="M278.09,33.17q0,10.5-6.23,16.73-7,7.42-18.41,7.42A25.14,25.14,0,0,1,235,49.76a25.3,25.3,0,0,1-7.56-18.62A25.31,25.31,0,0,1,235,12.52,25.14,25.14,0,0,1,253.45,5a27.84,27.84,0,0,1,10.43,2,20.85,20.85,0,0,1,8,5.53l-4.62,4.62a15.53,15.53,0,0,0-6-4.37,19.77,19.77,0,0,0-7.88-1.58,18.85,18.85,0,0,0-13.86,5.67A19.73,19.73,0,0,0,234,31.14a19.72,19.72,0,0,0,5.6,14.35,18.85,18.85,0,0,0,13.86,5.67A18.64,18.64,0,0,0,265.91,47a16.74,16.74,0,0,0,5.74-11.55h-18.2v-6h24.29A21.55,21.55,0,0,1,278.09,33.17Z"/><path class="cls-14" d="M301.33,56.2V6.08h15.33q11.48,0,18.44,6.93t7,18.13q0,11.27-7,18.17t-18.44,6.9Zm6.44-44V50h8.89q8.75,0,13.79-5t5-13.9q0-8.82-5-13.86t-13.79-5Z"/><path class="cls-14" d="M363,57.32a16.4,16.4,0,0,1-12.46-5.18A18.29,18.29,0,0,1,345.65,39,18.63,18.63,0,0,1,350.41,26a15.75,15.75,0,0,1,12.18-5.21q7.63,0,12.15,4.94t4.52,13.82l-.07.7h-27a11.17,11.17,0,0,0,3.36,8.12,10.75,10.75,0,0,0,7.7,3.08q6.16,0,9.66-6.16l5.74,2.8a17.1,17.1,0,0,1-6.4,6.79A17.72,17.72,0,0,1,363,57.32Zm-10.29-22.4h19.67A8.54,8.54,0,0,0,369.48,29a10.17,10.17,0,0,0-7-2.35,9.34,9.34,0,0,0-6.26,2.24A10.7,10.7,0,0,0,352.72,34.92Z"/><path class="cls-14" d="M399.22,56.2h-6.44L378.92,21.9h7L396,48.5h.14l10.22-26.6h6.86Z"/><path class="cls-14" d="M423.44,34.71V56.2H417V6.08h29.26v6.16H423.44V28.69H444v6Z"/><path class="cls-14" d="M465.6,57.32a16.4,16.4,0,0,1-12.46-5.18A18.29,18.29,0,0,1,448.24,39,18.63,18.63,0,0,1,453,26a15.76,15.76,0,0,1,12.18-5.21q7.63,0,12.14,4.94t4.51,13.82l-.07.7h-27a11.17,11.17,0,0,0,3.36,8.12,10.75,10.75,0,0,0,7.7,3.08q6.16,0,9.66-6.16l5.74,2.8a17.1,17.1,0,0,1-6.41,6.79A17.72,17.72,0,0,1,465.6,57.32Zm-10.29-22.4H475A8.54,8.54,0,0,0,472.07,29a10.17,10.17,0,0,0-7-2.35,9.34,9.34,0,0,0-6.26,2.24A10.7,10.7,0,0,0,455.31,34.92Z"/><path class="cls-14" d="M512.74,46.68a9.3,9.3,0,0,1-3.92,7.56A15.49,15.49,0,0,1,499,57.32a15.67,15.67,0,0,1-9.1-2.7,14.85,14.85,0,0,1-5.6-7.1L490,45.07a10.65,10.65,0,0,0,3.67,4.79A8.93,8.93,0,0,0,499,51.58a9.32,9.32,0,0,0,5.15-1.33,3.77,3.77,0,0,0,2.06-3.15q0-3.29-5-4.83l-5.88-1.47q-10-2.52-10-9.66A8.92,8.92,0,0,1,489,23.61a17.49,17.49,0,0,1,18-.67,11.8,11.8,0,0,1,5.15,5.81l-5.74,2.38a7.23,7.23,0,0,0-3.19-3.4,10,10,0,0,0-4.93-1.23,8.28,8.28,0,0,0-4.51,1.26,3.63,3.63,0,0,0-2,3.08q0,2.94,5.53,4.2l5.18,1.33Q512.74,38.91,512.74,46.68Z"/><path class="cls-14" d="M530.85,56.76a9.79,9.79,0,0,1-7-2.59A9.6,9.6,0,0,1,521.05,47V27.78h-6V21.9h6V11.4h6.44V21.9h8.4v5.88h-8.4V44.86q0,3.43,1.33,4.65a4.32,4.32,0,0,0,3,1.23,6.48,6.48,0,0,0,1.5-.17,7.75,7.75,0,0,0,1.36-.46l2,5.74A17.31,17.31,0,0,1,530.85,56.76Z"/><path class="cls-14" d="M146.34,123.11a20.75,20.75,0,0,1-21.2-21.32,20.84,20.84,0,0,1,21.2-21.32,18.87,18.87,0,0,1,15,6.67l-3.76,3.65a13.93,13.93,0,0,0-11.23-5.3A15.4,15.4,0,0,0,135,90a15.88,15.88,0,0,0-4.5,11.74,15.88,15.88,0,0,0,4.5,11.74,15.39,15.39,0,0,0,11.34,4.56q7.12,0,12.37-6l3.82,3.71a19.8,19.8,0,0,1-7.12,5.39A21.72,21.72,0,0,1,146.34,123.11Z"/><path class="cls-14" d="M164.79,108.23a14.77,14.77,0,0,1,4-10.66,13.8,13.8,0,0,1,10.32-4.22,13.61,13.61,0,0,1,10.26,4.22,15.89,15.89,0,0,1,0,21.32,13.61,13.61,0,0,1-10.26,4.22,13.79,13.79,0,0,1-10.32-4.22A14.77,14.77,0,0,1,164.79,108.23Zm5.24,0a10.23,10.23,0,0,0,2.62,7.3,9,9,0,0,0,13,0,11.38,11.38,0,0,0,0-14.54,8.83,8.83,0,0,0-13,0A10.15,10.15,0,0,0,170,108.23Z"/><path class="cls-14" d="M203.88,84.63A3.7,3.7,0,1,1,202.8,82,3.57,3.57,0,0,1,203.88,84.63Zm-1.08,9.63V122.2h-5.24V94.27Z"/><path class="cls-14" d="M213.73,122.2h-5.24V94.27h5v3.88h.23a9.33,9.33,0,0,1,3.68-3.42,10.27,10.27,0,0,1,10.35.06,8.41,8.41,0,0,1,3.42,3.93,10.9,10.9,0,0,1,9.63-5.36q4.84,0,7.47,3t2.62,8.44V122.2h-5.24V105.55q0-3.93-1.42-5.67t-4.79-1.74a6.26,6.26,0,0,0-5.07,2.57,9.38,9.38,0,0,0-2.05,6V122.2h-5.24V105.55q0-3.93-1.42-5.67t-4.79-1.74a6.26,6.26,0,0,0-5.07,2.57,9.38,9.38,0,0,0-2.05,6Z"/><path class="cls-14" d="M271,123.11a12,12,0,0,1-5.61-1.31,9.82,9.82,0,0,1-3.9-3.48h-.23v3.88h-5V81.38h5.24V94.27l-.23,3.88h.23a9.83,9.83,0,0,1,3.9-3.48,12.4,12.4,0,0,1,15,3,16.1,16.1,0,0,1,0,21.09A12,12,0,0,1,271,123.11Zm-.85-4.79a8.17,8.17,0,0,0,6.33-2.85,10.28,10.28,0,0,0,2.57-7.24,10.41,10.41,0,0,0-2.57-7.24,8.51,8.51,0,0,0-12.71,0,11.78,11.78,0,0,0,0,14.54A8.31,8.31,0,0,0,270.1,118.32Z"/><path class="cls-14" d="M298.81,93.36q5.81,0,9.18,3.11a11,11,0,0,1,3.36,8.52V122.2h-5v-3.88h-.23a10,10,0,0,1-8.66,4.79,11.26,11.26,0,0,1-7.72-2.74,8.73,8.73,0,0,1-3.11-6.84,8.3,8.3,0,0,1,3.28-6.9,13.81,13.81,0,0,1,8.75-2.56,15.48,15.48,0,0,1,7.69,1.71v-1.2a6,6,0,0,0-2.17-4.65A7.43,7.43,0,0,0,299.1,98a8,8,0,0,0-7,3.71l-4.62-2.91Q291.35,93.35,298.81,93.36ZM292,113.65a4.19,4.19,0,0,0,1.74,3.42,6.4,6.4,0,0,0,4.08,1.37,8.36,8.36,0,0,0,5.9-2.45,7.68,7.68,0,0,0,2.59-5.76,10.78,10.78,0,0,0-6.84-1.94,8.89,8.89,0,0,0-5.33,1.54A4.57,4.57,0,0,0,292,113.65Z"/><path class="cls-14" d="M326.67,122.65a8,8,0,0,1-5.67-2.11,7.82,7.82,0,0,1-2.31-5.87V99.05h-4.9V94.27h4.9V85.72h5.24v8.55h6.84v4.79h-6.84V113q0,2.79,1.08,3.79a3.52,3.52,0,0,0,2.45,1,5.26,5.26,0,0,0,1.23-.14,6.3,6.3,0,0,0,1.11-.37l1.65,4.67A14.09,14.09,0,0,1,326.67,122.65Z"/><path class="cls-14" d="M332.24,108.23a14.77,14.77,0,0,1,4-10.66,13.8,13.8,0,0,1,10.32-4.22,13.61,13.61,0,0,1,10.26,4.22,15.89,15.89,0,0,1,0,21.32,13.61,13.61,0,0,1-10.26,4.22,13.79,13.79,0,0,1-10.32-4.22A14.77,14.77,0,0,1,332.24,108.23Zm5.24,0a10.23,10.23,0,0,0,2.62,7.3,9,9,0,0,0,13,0,11.38,11.38,0,0,0,0-14.54,8.83,8.83,0,0,0-13,0A10.15,10.15,0,0,0,337.49,108.23Z"/><path class="cls-14" d="M370.15,122.2h-5.24V94.27h5v4.56h.23A7.57,7.57,0,0,1,373.43,95a9.1,9.1,0,0,1,4.87-1.57,9.83,9.83,0,0,1,3.88.68l-1.6,5.07a8.71,8.71,0,0,0-3.08-.4,6.79,6.79,0,0,0-5.16,2.39,8,8,0,0,0-2.19,5.59Z"/><path class="cls-14" d="M396.28,123.11a13.36,13.36,0,0,1-10.15-4.22,14.89,14.89,0,0,1-4-10.66A15.17,15.17,0,0,1,386,97.6a13.94,13.94,0,0,1,19.81-.23q3.68,4,3.68,11.26l-.06.57H387.5a9.1,9.1,0,0,0,2.74,6.61,8.75,8.75,0,0,0,6.27,2.51q5,0,7.87-5l4.67,2.28a13.93,13.93,0,0,1-5.22,5.53A14.43,14.43,0,0,1,396.28,123.11Zm-8.38-18.24h16a7,7,0,0,0-2.37-4.82,8.28,8.28,0,0,0-5.73-1.91,7.6,7.6,0,0,0-5.1,1.82A8.72,8.72,0,0,0,387.9,104.87Z"/><path class="cls-14" d="M450.77,117.18v5H425.92V117L436,106.75A89,89,0,0,0,443,99,9,9,0,0,0,445,93.53a5.74,5.74,0,0,0-2-4.39,7.31,7.31,0,0,0-5.13-1.82,7,7,0,0,0-4.62,1.6,7.2,7.2,0,0,0-2.51,3.88l-4.79-1.94a12.51,12.51,0,0,1,12-8.55,12.56,12.56,0,0,1,8.83,3.25,10.42,10.42,0,0,1,3.53,8q0,5.64-6.21,12.2l-11.4,11.46Z"/><path class="cls-14" d="M454,102.7q0-8.89,4.39-14.65a13.9,13.9,0,0,1,22.57.06q4.39,5.76,4.39,14.59T481,117.35a13.94,13.94,0,0,1-22.57,0Q454,111.48,454,102.7Zm26,0a19.75,19.75,0,0,0-2.85-11.06,8.6,8.6,0,0,0-14.93,0,19.75,19.75,0,0,0-2.85,11.06,20,20,0,0,0,2.85,11.12,8.63,8.63,0,0,0,14.93-.06A19.93,19.93,0,0,0,480,102.7Z"/><path class="cls-14" d="M502.23,83.21v39H497V89.71L489.41,93l-2-4.45,11.46-5.36Z"/><path class="cls-14" d="M522.31,97.46a11.54,11.54,0,0,1,8.44,3.76,12,12,0,0,1,3.76,8.83,12.49,12.49,0,0,1-4,9.18,13.12,13.12,0,0,1-9.35,3.88,12.94,12.94,0,0,1-9.52-3.88,12.54,12.54,0,0,1-3.88-9.18q0-4.73,3.82-10.77l11.34-17,4.22,2.91-9.63,13.34.11.11A8.2,8.2,0,0,1,522.31,97.46Zm-9.23,12.65a7.75,7.75,0,0,0,2.34,5.7,7.92,7.92,0,0,0,5.76,2.28,7.88,7.88,0,0,0,8-8,7.6,7.6,0,0,0-2.39-5.64,7.69,7.69,0,0,0-5.64-2.34,8,8,0,0,0-5.7,2.34A7.6,7.6,0,0,0,513.08,110.11Z"/></g></g></g></svg>