<?xml version="1.0" encoding="UTF-8" standalone="no"?>
<svg width="184px" height="186px" viewBox="0 0 184 186" version="1.1" xmlns="http://www.w3.org/2000/svg" xmlns:xlink="http://www.w3.org/1999/xlink">
    <!-- Generator: Sketch 39.1 (31720) - http://www.bohemiancoding.com/sketch -->
    <title>logos</title>
    <desc>Created with Sketch.</desc>
    <defs>
        <radialGradient cx="49.969398%" cy="49.9951198%" fx="49.969398%" fy="49.9951198%" r="115.408943%" id="radialGradient-1">
            <stop stop-color="#FFCF4F" offset="0%"></stop>
            <stop stop-color="#F4C236" offset="100%"></stop>
        </radialGradient>
        <radialGradient cx="49.9754259%" cy="49.9956595%" fx="49.9754259%" fy="49.9956595%" r="128.838083%" id="radialGradient-2">
            <stop stop-color="#08A960" offset="0%"></stop>
            <stop stop-color="#07914B" offset="100%"></stop>
        </radialGradient>
        <radialGradient cx="49.984431%" cy="49.9971903%" fx="49.984431%" fy="49.9971903%" r="130.881758%" id="radialGradient-3">
            <stop stop-color="#567FC0" offset="0%"></stop>
            <stop stop-color="#557FC0" offset="100%"></stop>
        </radialGradient>
        <radialGradient cx="49.9796554%" cy="49.9945664%" fx="49.9796554%" fy="49.9945664%" r="123.138584%" id="radialGradient-4">
            <stop stop-color="#E14C40" offset="0%"></stop>
            <stop stop-color="#CD392D" offset="100%"></stop>
        </radialGradient>
        <radialGradient cx="49.969398%" cy="50.0044307%" fx="49.969398%" fy="50.0044307%" r="115.408943%" id="radialGradient-5">
            <stop stop-color="#CCCCCC" offset="0%"></stop>
            <stop stop-color="#C0C0C0" offset="100%"></stop>
        </radialGradient>
        <radialGradient cx="49.9754259%" cy="50.0020567%" fx="49.9754259%" fy="50.0020567%" r="128.838083%" id="radialGradient-6">
            <stop stop-color="#A0A0A0" offset="0%"></stop>
            <stop stop-color="#7B7B7B" offset="100%"></stop>
        </radialGradient>
        <radialGradient cx="49.9841303%" cy="50.0014218%" fx="49.9841303%" fy="50.0014218%" r="130.882545%" id="radialGradient-7">
            <stop stop-color="#848484" offset="0%"></stop>
            <stop stop-color="#838383" offset="100%"></stop>
        </radialGradient>
        <radialGradient cx="49.9796554%" cy="50.0000326%" fx="49.9796554%" fy="50.0000326%" r="123.138584%" id="radialGradient-8">
            <stop stop-color="#626262" offset="0%"></stop>
            <stop stop-color="#474747" offset="100%"></stop>
        </radialGradient>
        <radialGradient cx="49.9714866%" cy="50.0135187%" fx="49.9714866%" fy="50.0135187%" r="115.408943%" id="radialGradient-9">
            <stop stop-color="#FFCF4F" offset="0%"></stop>
            <stop stop-color="#F4C236" offset="100%"></stop>
        </radialGradient>
        <radialGradient cx="49.9761343%" cy="50.0083007%" fx="49.9761343%" fy="50.0083007%" r="128.840626%" id="radialGradient-10">
            <stop stop-color="#08A960" offset="0%"></stop>
            <stop stop-color="#07914B" offset="100%"></stop>
        </radialGradient>
        <radialGradient cx="49.9853055%" cy="50.0056532%" fx="49.9853055%" fy="50.0056532%" r="130.882545%" id="radialGradient-11">
            <stop stop-color="#567FC0" offset="0%"></stop>
            <stop stop-color="#557FC0" offset="100%"></stop>
        </radialGradient>
        <radialGradient cx="49.9810113%" cy="50.0053679%" fx="49.9810113%" fy="50.0053679%" r="123.138584%" id="radialGradient-12">
            <stop stop-color="#E14C40" offset="0%"></stop>
            <stop stop-color="#CD392D" offset="100%"></stop>
        </radialGradient>
    </defs>
    <g id="Page-1" stroke="none" stroke-width="1" fill="none" fill-rule="evenodd">
        <g id="logos">
            <g id="Group">
                <g transform="translate(102.000000, 9.000000)" id="Shape" fill="#4E4E4E">
                    <path d="M13.912,7.967 C13.912,10.643 13.181,12.705 11.719,14.153 C10.257,15.601 8.201,16.324 5.553,16.324 L0.405,16.324 L0.405,0.29 L5.912,0.29 C8.466,0.29 10.438,0.948 11.828,2.264 C13.217,3.58 13.912,5.481 13.912,7.967 L13.912,7.967 Z M9.45,8.121 C9.45,6.652 9.161,5.562 8.584,4.853 C8.007,4.144 7.131,3.789 5.956,3.789 L4.705,3.789 L4.705,12.771 L5.663,12.771 C6.969,12.771 7.927,12.389 8.537,11.625 C9.147,10.861 9.45,9.693 9.45,8.121 L9.45,8.121 Z"></path>
                    <path d="M21.129,16.544 C19.076,16.544 17.483,15.994 16.346,14.894 C15.21,13.793 14.642,12.227 14.642,10.194 C14.642,8.095 15.168,6.485 16.22,5.362 C17.273,4.24 18.775,3.678 20.726,3.678 C22.583,3.678 24.019,4.166 25.031,5.142 C26.043,6.118 26.551,7.524 26.551,9.359 L26.551,11.267 L18.942,11.267 C18.971,11.962 19.223,12.506 19.7,12.901 C20.175,13.296 20.821,13.493 21.641,13.493 C22.389,13.493 23.077,13.422 23.704,13.279 C24.333,13.136 25.013,12.893 25.745,12.55 L25.745,15.632 C25.077,15.976 24.388,16.213 23.677,16.345 C22.965,16.478 22.117,16.544 21.129,16.544 L21.129,16.544 Z M20.879,6.596 C20.379,6.596 19.959,6.755 19.623,7.073 C19.285,7.391 19.086,7.89 19.029,8.57 L22.685,8.57 C22.671,7.971 22.501,7.492 22.179,7.133 C21.857,6.774 21.424,6.596 20.879,6.596 L20.879,6.596 Z"></path>
                    <path d="M30.851,16.325 L26.149,3.899 L30.589,3.899 L32.679,11.247 C32.687,11.284 32.701,11.346 32.723,11.434 C32.745,11.522 32.766,11.626 32.788,11.747 C32.809,11.868 32.829,11.996 32.848,12.131 C32.866,12.267 32.875,12.393 32.875,12.509 L32.951,12.509 C32.951,12.129 33.016,11.716 33.146,11.27 L35.334,3.9 L39.764,3.9 L35.062,16.326 L30.851,16.326 L30.851,16.325 Z"></path>
                    <polygon points="44.381 16.325 40.147 16.325 40.147 0.29 49.551 0.29 49.551 3.767 44.381 3.767 44.381 6.827 49.148 6.827 49.148 10.304 44.381 10.304"></polygon>
                    <path d="M56.528,16.544 C54.474,16.544 52.881,15.994 51.745,14.894 C50.609,13.794 50.042,12.227 50.042,10.194 C50.042,8.095 50.567,6.485 51.62,5.362 C52.672,4.24 54.174,3.678 56.126,3.678 C57.983,3.678 59.418,4.166 60.431,5.142 C61.443,6.118 61.95,7.524 61.95,9.359 L61.95,11.267 L54.342,11.267 C54.371,11.962 54.623,12.506 55.099,12.901 C55.574,13.296 56.221,13.493 57.041,13.493 C57.788,13.493 58.476,13.422 59.104,13.279 C59.732,13.136 60.412,12.893 61.145,12.55 L61.145,15.632 C60.477,15.976 59.788,16.213 59.077,16.345 C58.364,16.478 57.516,16.544 56.528,16.544 L56.528,16.544 Z M56.278,6.596 C55.777,6.596 55.358,6.755 55.021,7.073 C54.683,7.391 54.485,7.89 54.427,8.57 L58.084,8.57 C58.069,7.971 57.9,7.492 57.578,7.133 C57.256,6.775 56.822,6.596 56.278,6.596 L56.278,6.596 Z"></path>
                    <path d="M72.541,12.508 C72.541,13.839 72.091,14.844 71.191,15.524 C70.291,16.204 69,16.544 67.316,16.544 C66.402,16.544 65.607,16.495 64.932,16.396 C64.257,16.297 63.568,16.116 62.865,15.853 L62.865,12.42 C63.525,12.712 64.249,12.954 65.036,13.144 C65.823,13.334 66.525,13.429 67.142,13.429 C68.063,13.429 68.524,13.217 68.524,12.793 C68.524,12.574 68.395,12.378 68.138,12.207 C67.88,12.035 67.131,11.701 65.89,11.203 C64.758,10.735 63.967,10.203 63.517,9.607 C63.068,9.011 62.842,8.256 62.842,7.342 C62.842,6.187 63.284,5.287 64.17,4.644 C65.055,4 66.307,3.679 67.925,3.679 C68.738,3.679 69.501,3.769 70.216,3.948 C70.931,4.127 71.673,4.388 72.443,4.732 L71.289,7.496 C70.724,7.24 70.125,7.023 69.493,6.844 C68.862,6.665 68.347,6.575 67.947,6.575 C67.251,6.575 66.903,6.747 66.903,7.091 C66.903,7.303 67.024,7.484 67.267,7.634 C67.51,7.784 68.212,8.089 69.373,8.55 C70.236,8.908 70.88,9.259 71.305,9.603 C71.73,9.947 72.041,10.351 72.241,10.815 C72.441,11.278 72.541,11.843 72.541,12.508 L72.541,12.508 Z"></path>
                    <path d="M79.605,13.155 C80.178,13.155 80.864,13.012 81.663,12.727 L81.663,15.853 C81.09,16.102 80.544,16.279 80.024,16.385 C79.505,16.49 78.898,16.544 78.202,16.544 C76.772,16.544 75.742,16.191 75.11,15.486 C74.479,14.78 74.164,13.696 74.164,12.234 L74.164,7.112 L72.673,7.112 L72.673,5.368 L74.567,4.019 L75.667,1.409 L78.453,1.409 L78.453,3.899 L81.478,3.899 L81.478,7.112 L78.453,7.112 L78.453,11.949 C78.452,12.753 78.837,13.155 79.605,13.155 L79.605,13.155 Z"></path>
                </g>
                <path d="M59.6777344,46.1953125 L50,46.1953125 L50,44.4570312 L53.6816406,40.7558594 C54.7688856,39.6425726 55.4899071,38.8531924 55.8447266,38.3876953 C56.199546,37.9221982 56.4583325,37.4843771 56.6210938,37.0742188 C56.783855,36.6640604 56.8652344,36.2246117 56.8652344,35.7558594 C56.8652344,35.1113249 56.6715514,34.6035175 56.2841797,34.2324219 C55.896808,33.8613263 55.3613315,33.6757812 54.6777344,33.6757812 C54.1308566,33.6757812 53.6018906,33.7766917 53.0908203,33.9785156 C52.57975,34.1803396 51.9889356,34.5449192 51.3183594,35.0722656 L50.078125,33.5585938 C50.8723998,32.8880175 51.6438765,32.4127618 52.3925781,32.1328125 C53.1412798,31.8528632 53.9387979,31.7128906 54.7851562,31.7128906 C56.1132879,31.7128906 57.1777304,32.0595668 57.9785156,32.7529297 C58.7793009,33.4462925 59.1796875,34.3789004 59.1796875,35.5507812 C59.1796875,36.1953157 59.0641288,36.8072888 58.8330078,37.3867188 C58.6018869,37.9661487 58.2470727,38.5634735 57.7685547,39.1787109 C57.2900367,39.7939484 56.4941462,40.6256458 55.3808594,41.6738281 L52.9003906,44.0761719 L52.9003906,44.1738281 L59.6777344,44.1738281 L59.6777344,46.1953125 Z M70.79375,39.0566406 C70.79375,41.5371218 70.394991,43.3795513 69.5974609,44.5839844 C68.7999309,45.7884175 67.5808676,46.390625 65.9402344,46.390625 C64.3516848,46.390625 63.1472697,45.7688864 62.3269531,44.5253906 C61.5066365,43.2818948 61.0964844,41.4589964 61.0964844,39.0566406 C61.0964844,36.5370968 61.4952434,34.680019 62.2927734,33.4853516 C63.0903035,32.2906841 64.3061116,31.6933594 65.9402344,31.6933594 C67.5352944,31.6933594 68.7429646,32.3183531 69.5632812,33.5683594 C70.3835978,34.8183656 70.79375,36.6477744 70.79375,39.0566406 L70.79375,39.0566406 Z M63.4207031,39.0566406 C63.4207031,41.0032649 63.6208964,42.393225 64.0212891,43.2265625 C64.4216817,44.0599 65.0613237,44.4765625 65.9402344,44.4765625 C66.819145,44.4765625 67.4620422,44.0533896 67.8689453,43.2070312 C68.2758484,42.3606729 68.4792969,40.9772231 68.4792969,39.0566406 C68.4792969,37.1425686 68.2758484,35.7574913 67.8689453,34.9013672 C67.4620422,34.0452431 66.819145,33.6171875 65.9402344,33.6171875 C65.0613237,33.6171875 64.4216817,34.0371052 64.0212891,34.8769531 C63.6208964,35.7168011 63.4207031,37.1100163 63.4207031,39.0566406 L63.4207031,39.0566406 Z M78.9703125,46.1953125 L76.6753906,46.1953125 L76.6753906,36.9765625 C76.6753906,35.8762966 76.701432,35.0039095 76.7535156,34.359375 C76.6037753,34.5156258 76.4198578,34.6881501 76.2017578,34.8769531 C75.9836577,35.0657562 75.2528708,35.6647085 74.009375,36.6738281 L72.8570312,35.21875 L77.05625,31.9179688 L78.9703125,31.9179688 L78.9703125,46.1953125 Z M83.3871093,40.1113281 C83.3871093,34.5253627 85.6624772,31.7324219 90.2132812,31.7324219 C90.9294306,31.7324219 91.5348933,31.7877599 92.0296875,31.8984375 L92.0296875,33.8125 C91.5348933,33.6692701 90.9619824,33.5976562 90.3109375,33.5976562 C88.7809819,33.5976562 87.6319048,34.0078084 86.8636718,34.828125 C86.0954388,35.6484416 85.6787763,36.9635326 85.6136718,38.7734375 L85.7308593,38.7734375 C86.0368505,38.2460911 86.4665337,37.8375666 87.0199218,37.5478516 C87.57331,37.2581366 88.2243452,37.1132812 88.9730468,37.1132812 C90.2686262,37.1132812 91.2777307,37.5104127 92.0003906,38.3046875 C92.7230505,39.0989623 93.084375,40.1764255 93.084375,41.5371094 C93.084375,43.0345127 92.6660849,44.2177691 91.8294922,45.0869141 C90.9928994,45.956059 89.8519603,46.390625 88.4066406,46.390625 C87.3845001,46.390625 86.4958371,46.1448592 85.740625,45.6533203 C84.9854129,45.1617814 84.404364,44.4456427 83.9974609,43.5048828 C83.5905578,42.5641229 83.3871093,41.4329493 83.3871093,40.1113281 L83.3871093,40.1113281 Z M88.3675781,44.4960938 C89.1553424,44.4960938 89.7624327,44.24219 90.1888672,43.734375 C90.6153016,43.22656 90.8285156,42.5006558 90.8285156,41.5566406 C90.8285156,40.736324 90.6283223,40.0917992 90.2279297,39.6230469 C89.827537,39.1542945 89.2269571,38.9199219 88.4261718,38.9199219 C87.9313777,38.9199219 87.4756531,39.0257151 87.0589843,39.2373047 C86.6423156,39.4488943 86.3135428,39.7386049 86.0726562,40.1064453 C85.8317696,40.4742857 85.7113281,40.8502585 85.7113281,41.234375 C85.7113281,42.1523483 85.960349,42.9254526 86.4583984,43.5537109 C86.9564478,44.1819693 87.5928346,44.4960938 88.3675781,44.4960938 L88.3675781,44.4960938 Z M106.439453,33.7148438 C105.098301,33.7148438 104.043624,34.1900994 103.275391,35.140625 C102.507158,36.0911506 102.123047,37.4029864 102.123047,39.0761719 C102.123047,40.8274827 102.492509,42.1523393 103.231445,43.0507812 C103.970381,43.9492232 105.039706,44.3984375 106.439453,44.3984375 C107.044925,44.3984375 107.630856,44.3382167 108.197266,44.2177734 C108.763675,44.0973301 109.352861,43.9427093 109.964844,43.7539062 L109.964844,45.7558594 C108.845046,46.1790386 107.575528,46.390625 106.15625,46.390625 C104.066396,46.390625 102.461594,45.7574933 101.341797,44.4912109 C100.222,43.2249286 99.6621093,41.4134232 99.6621093,39.0566406 C99.6621093,37.5722582 99.9339165,36.2734431 100.477539,35.1601562 C101.021162,34.0468694 101.807286,33.1940134 102.835937,32.6015625 C103.864588,32.0091116 105.072259,31.7128906 106.458984,31.7128906 C107.917325,31.7128906 109.264968,32.0188771 110.501953,32.6308594 L109.662109,34.5742188 C109.180336,34.346353 108.670901,34.1461597 108.133789,33.9736328 C107.596677,33.8011059 107.031904,33.7148438 106.439453,33.7148438 L106.439453,33.7148438 Z M121.998828,46.1953125 L119.694141,46.1953125 L119.694141,39.5546875 C119.694141,38.72135 119.526499,38.0996114 119.191211,37.6894531 C118.855923,37.2792948 118.323701,37.0742188 117.594531,37.0742188 C116.630985,37.0742188 115.922984,37.3623018 115.470508,37.9384766 C115.018032,38.5146513 114.791797,39.4798109 114.791797,40.8339844 L114.791797,46.1953125 L112.496875,46.1953125 L112.496875,31 L114.791797,31 L114.791797,34.8574219 C114.791797,35.4759146 114.752735,36.1367152 114.674609,36.8398438 L114.821094,36.8398438 C115.133595,36.3190078 115.568161,35.915366 116.124805,35.6289062 C116.681448,35.3424465 117.330856,35.1992188 118.073047,35.1992188 C120.690247,35.1992188 121.998828,36.5175649 121.998828,39.1542969 L121.998828,46.1953125 Z M129.608984,46.390625 C127.929288,46.390625 126.615825,45.900721 125.668555,44.9208984 C124.721284,43.9410758 124.247656,42.5918055 124.247656,40.8730469 C124.247656,39.1087151 124.687105,37.7220103 125.566016,36.7128906 C126.444926,35.703771 127.652596,35.1992188 129.189062,35.1992188 C130.614851,35.1992188 131.741142,35.6321571 132.567969,36.4980469 C133.394796,37.3639366 133.808203,38.555331 133.808203,40.0722656 L133.808203,41.3125 L126.610937,41.3125 C126.64349,42.3606823 126.92669,43.1663383 127.460547,43.7294922 C127.994404,44.292646 128.746349,44.5742188 129.716406,44.5742188 C130.35443,44.5742188 130.9485,44.513998 131.498633,44.3935547 C132.048766,44.2731114 132.63958,44.0729181 133.271094,43.7929688 L133.271094,45.6582031 C132.711195,45.9251315 132.144794,46.1139317 131.571875,46.2246094 C130.998955,46.335287 130.344665,46.390625 129.608984,46.390625 L129.608984,46.390625 Z M129.189062,36.9375 C128.459892,36.9375 127.875588,37.1686175 127.436133,37.6308594 C126.996677,38.0931013 126.734636,38.7669227 126.65,39.6523438 L131.552344,39.6523438 C131.539323,38.7604122 131.324481,38.0849632 130.907812,37.6259766 C130.491144,37.1669899 129.918233,36.9375 129.189062,36.9375 L129.189062,36.9375 Z M145.617578,46.1953125 L143.312891,46.1953125 L143.312891,39.5546875 C143.312891,38.72135 143.145249,38.0996114 142.809961,37.6894531 C142.474673,37.2792948 141.942451,37.0742188 141.213281,37.0742188 C140.243224,37.0742188 139.533596,37.3606742 139.084375,37.9335938 C138.635154,38.5065133 138.410547,39.4667901 138.410547,40.8144531 L138.410547,46.1953125 L136.115625,46.1953125 L136.115625,35.3945312 L137.9125,35.3945312 L138.234766,36.8105469 L138.351953,36.8105469 C138.677475,36.2962214 139.13971,35.8990899 139.738672,35.6191406 C140.337633,35.3391913 141.001689,35.1992188 141.730859,35.1992188 C144.322018,35.1992188 145.617578,36.5175649 145.617578,39.1542969 L145.617578,46.1953125 Z M158.012891,46.1953125 L155.708203,46.1953125 L155.708203,39.5546875 C155.708203,38.72135 155.540561,38.0996114 155.205273,37.6894531 C154.869985,37.2792948 154.337764,37.0742188 153.608594,37.0742188 C152.638537,37.0742188 151.928908,37.3606742 151.479687,37.9335938 C151.030466,38.5065133 150.805859,39.4667901 150.805859,40.8144531 L150.805859,46.1953125 L148.510937,46.1953125 L148.510937,35.3945312 L150.307812,35.3945312 L150.630078,36.8105469 L150.747266,36.8105469 C151.072788,36.2962214 151.535023,35.8990899 152.133984,35.6191406 C152.732946,35.3391913 153.397001,35.1992188 154.126172,35.1992188 C156.717331,35.1992188 158.012891,36.5175649 158.012891,39.1542969 L158.012891,46.1953125 Z M167.664062,46.1953125 L167.205078,44.6914062 L167.126953,44.6914062 C166.606117,45.3489616 166.082034,45.7965483 165.554687,46.0341797 C165.027341,46.2718111 164.350264,46.390625 163.523437,46.390625 C162.462234,46.390625 161.633792,46.1041695 161.038086,45.53125 C160.44238,44.9583305 160.144531,44.1477917 160.144531,43.0996094 C160.144531,41.9863226 160.557938,41.1464872 161.384766,40.5800781 C162.211593,40.013669 163.471346,39.7044273 165.164062,39.6523438 L167.029297,39.59375 L167.029297,39.0175781 C167.029297,38.3274705 166.868166,37.8115251 166.545898,37.4697266 C166.223631,37.127928 165.723962,36.9570312 165.046875,36.9570312 C164.493487,36.9570312 163.962893,37.0384106 163.455078,37.2011719 C162.947263,37.3639331 162.458987,37.5559885 161.990234,37.7773438 L161.248047,36.1367188 C161.833987,35.8307276 162.475257,35.5979826 163.171875,35.4384766 C163.868493,35.2789706 164.526038,35.1992188 165.144531,35.1992188 C166.518236,35.1992188 167.555009,35.4986949 168.254883,36.0976562 C168.954756,36.6966176 169.304687,37.6373634 169.304687,38.9199219 L169.304687,46.1953125 L167.664062,46.1953125 Z M164.246094,44.6328125 C165.079431,44.6328125 165.74837,44.4000674 166.25293,43.9345703 C166.757489,43.4690732 167.009766,42.8164104 167.009766,41.9765625 L167.009766,41.0390625 L165.623047,41.0976562 C164.542312,41.1367189 163.756187,41.3173812 163.264648,41.6396484 C162.773109,41.9619157 162.527344,42.4550748 162.527344,43.1191406 C162.527344,43.6009139 162.670571,43.9736315 162.957031,44.2373047 C163.243491,44.5009779 163.673174,44.6328125 164.246094,44.6328125 L164.246094,44.6328125 Z M174.502734,46.1953125 L172.207812,46.1953125 L172.207812,35.3945312 L174.502734,35.3945312 L174.502734,46.1953125 Z M172.071094,32.5332031 C172.071094,32.1230448 172.183397,31.8072928 172.408008,31.5859375 C172.632618,31.3645822 172.953253,31.2539062 173.369922,31.2539062 C173.77357,31.2539062 174.087694,31.3645822 174.312305,31.5859375 C174.536915,31.8072928 174.649219,32.1230448 174.649219,32.5332031 C174.649219,32.9238301 174.536915,33.2314442 174.312305,33.4560547 C174.087694,33.6806652 173.77357,33.7929688 173.369922,33.7929688 C172.953253,33.7929688 172.632618,33.6806652 172.408008,33.4560547 C172.183397,33.2314442 172.071094,32.9238301 172.071094,32.5332031 L172.071094,32.5332031 Z" id="2016-Chennai" fill="#4E4E4E"></path>
                <g transform="translate(48.000000, 9.000000)" id="Shape" fill="#4E4E4E">
                    <path d="M7.571,7.313 L14.493,7.313 L14.493,15.957 C12.614,16.601 10.548,16.922 8.295,16.922 C5.823,16.922 3.913,16.206 2.564,14.772 C1.215,13.339 0.54,11.295 0.54,8.64 C0.54,6.051 1.279,4.037 2.756,2.596 C4.233,1.156 6.303,0.435 8.964,0.435 C9.973,0.435 10.926,0.53 11.822,0.72 C12.718,0.91 13.498,1.152 14.164,1.444 L12.793,4.844 C11.637,4.274 10.369,3.989 8.986,3.989 C7.721,3.989 6.743,4.401 6.052,5.223 C5.361,6.046 5.015,7.222 5.015,8.75 C5.015,10.249 5.328,11.392 5.953,12.178 C6.578,12.964 7.479,13.357 8.657,13.357 C9.301,13.357 9.893,13.295 10.434,13.17 L10.434,10.658 L7.571,10.658 L7.571,7.313 L7.571,7.313 Z"></path>
                    <path d="M30.026,8.344 C30.026,11.02 29.289,13.083 27.816,14.531 C26.343,15.979 24.271,16.703 21.602,16.703 L16.414,16.703 L16.414,0.666 L21.965,0.666 C24.539,0.666 26.526,1.324 27.926,2.641 C29.326,3.958 30.026,5.858 30.026,8.344 L30.026,8.344 Z M25.529,8.498 C25.529,7.028 25.238,5.938 24.657,5.229 C24.075,4.52 23.193,4.165 22.008,4.165 L20.746,4.165 L20.746,13.148 L21.711,13.148 C23.027,13.148 23.993,12.766 24.607,12.002 C25.221,11.238 25.529,10.07 25.529,8.498 L25.529,8.498 Z"></path>
                    <path d="M37.991,7.313 L44.913,7.313 L44.913,15.957 C43.034,16.601 40.968,16.922 38.715,16.922 C36.243,16.922 34.333,16.206 32.984,14.772 C31.635,13.339 30.96,11.295 30.96,8.64 C30.96,6.051 31.699,4.037 33.176,2.596 C34.653,1.156 36.723,0.435 39.384,0.435 C40.393,0.435 41.346,0.53 42.242,0.72 C43.138,0.91 43.918,1.152 44.584,1.444 L43.213,4.844 C42.057,4.274 40.789,3.989 39.406,3.989 C38.141,3.989 37.163,4.401 36.472,5.223 C35.781,6.046 35.435,7.222 35.435,8.75 C35.435,10.249 35.748,11.392 36.373,12.178 C36.998,12.964 37.899,13.357 39.077,13.357 C39.721,13.357 40.313,13.295 40.854,13.17 L40.854,10.658 L37.991,10.658 L37.991,7.313 L37.991,7.313 Z"></path>
                </g>
                <path d="M8.91,60 L15.701,60 C17.308,60 19.305,58.872 20.133,57.489 L25.853,47.97 C26.53,46.574 26.506,44.544 25.734,43.257 L22.356,37.665 L8.91,60 L8.91,60 Z" id="Shape" fill="url(#radialGradient-1)"></path>
                <path d="M16.209,32.514 L1.108,57.763 C0.524,59.011 1.131,60 2.629,60 L8.91,60 L22.356,37.665 L16.21,27.492 C17.039,28.87 17.039,31.13 16.209,32.514" id="Shape" fill="url(#radialGradient-2)"></path>
                <path d="M2.629,0 C1.015,0 0.375,1.133 1.205,2.511 L25.734,43.256 C26.506,44.544 26.529,46.573 25.853,47.969 L31.816,38.044 L8.914,0 L2.629,0 L2.629,0 Z" id="Shape" fill="url(#radialGradient-3)"></path>
                <path d="M8.914,0 L31.817,38.045 L35.138,32.515 C35.968,31.13 35.968,28.87 35.138,27.492 L20.133,2.511 C19.305,1.133 17.308,0 15.701,0 L8.914,0 L8.914,0 Z" id="Shape" fill="url(#radialGradient-4)"></path>
            </g>
            <g id="Group" transform="translate(0.000000, 63.000000)">
                <g transform="translate(102.000000, 9.000000)" id="Shape" fill="#4E4E4E">
                    <path d="M13.912,7.967 C13.912,10.644 13.181,12.705 11.719,14.154 C10.257,15.601 8.201,16.325 5.553,16.325 L0.405,16.325 L0.405,0.29 L5.912,0.29 C8.466,0.29 10.438,0.947 11.828,2.264 C13.218,3.581 13.912,5.481 13.912,7.967 L13.912,7.967 Z M9.45,8.12 C9.45,6.651 9.161,5.561 8.584,4.852 C8.007,4.142 7.131,3.788 5.956,3.788 L4.705,3.788 L4.705,12.77 L5.663,12.77 C6.969,12.77 7.927,12.388 8.537,11.624 C9.145,10.86 9.45,9.692 9.45,8.12 L9.45,8.12 Z"></path>
                    <path d="M21.129,16.544 C19.076,16.544 17.483,15.994 16.346,14.894 C15.21,13.793 14.642,12.227 14.642,10.194 C14.642,8.095 15.168,6.485 16.22,5.363 C17.273,4.241 18.775,3.679 20.726,3.679 C22.583,3.679 24.019,4.167 25.031,5.143 C26.043,6.12 26.551,7.525 26.551,9.361 L26.551,11.269 L18.942,11.269 C18.971,11.963 19.223,12.508 19.7,12.903 C20.175,13.299 20.821,13.496 21.641,13.496 C22.389,13.496 23.077,13.425 23.704,13.282 C24.333,13.139 25.013,12.896 25.745,12.553 L25.745,15.635 C25.077,15.979 24.388,16.216 23.677,16.348 C22.965,16.478 22.117,16.544 21.129,16.544 L21.129,16.544 Z M20.879,6.596 C20.379,6.596 19.959,6.755 19.623,7.074 C19.285,7.392 19.086,7.891 19.029,8.571 L22.685,8.571 C22.671,7.971 22.501,7.493 22.179,7.134 C21.857,6.775 21.424,6.596 20.879,6.596 L20.879,6.596 Z"></path>
                    <path d="M30.851,16.324 L26.149,3.898 L30.589,3.898 L32.679,11.246 C32.687,11.283 32.701,11.345 32.723,11.433 C32.745,11.521 32.766,11.625 32.788,11.746 C32.809,11.867 32.829,11.995 32.848,12.13 C32.866,12.266 32.875,12.392 32.875,12.509 L32.951,12.509 C32.951,12.129 33.016,11.716 33.146,11.27 L35.334,3.9 L39.764,3.9 L35.062,16.326 L30.851,16.326 L30.851,16.324 Z"></path>
                    <polygon points="44.381 16.324 40.147 16.324 40.147 0.29 49.551 0.29 49.551 3.767 44.381 3.767 44.381 6.827 49.148 6.827 49.148 10.304 44.381 10.304"></polygon>
                    <path d="M56.528,16.544 C54.474,16.544 52.881,15.994 51.745,14.894 C50.609,13.794 50.042,12.227 50.042,10.194 C50.042,8.095 50.567,6.485 51.62,5.363 C52.672,4.241 54.174,3.679 56.126,3.679 C57.983,3.679 59.418,4.167 60.431,5.143 C61.443,6.12 61.95,7.525 61.95,9.361 L61.95,11.269 L54.342,11.269 C54.371,11.963 54.623,12.508 55.099,12.903 C55.574,13.299 56.221,13.496 57.041,13.496 C57.788,13.496 58.476,13.425 59.104,13.282 C59.732,13.139 60.412,12.896 61.145,12.553 L61.145,15.635 C60.477,15.979 59.788,16.216 59.077,16.348 C58.364,16.478 57.516,16.544 56.528,16.544 L56.528,16.544 Z M56.278,6.596 C55.777,6.596 55.358,6.755 55.021,7.074 C54.683,7.392 54.485,7.891 54.427,8.571 L58.084,8.571 C58.069,7.971 57.9,7.493 57.578,7.134 C57.256,6.775 56.822,6.596 56.278,6.596 L56.278,6.596 Z"></path>
                    <path d="M72.541,12.508 C72.541,13.839 72.091,14.844 71.191,15.524 C70.291,16.205 69,16.545 67.316,16.545 C66.402,16.545 65.607,16.495 64.932,16.397 C64.257,16.299 63.568,16.118 62.865,15.854 L62.865,12.42 C63.525,12.713 64.249,12.954 65.036,13.144 C65.823,13.334 66.525,13.429 67.142,13.429 C68.063,13.429 68.524,13.217 68.524,12.793 C68.524,12.573 68.395,12.378 68.138,12.206 C67.88,12.034 67.131,11.7 65.89,11.202 C64.758,10.734 63.967,10.203 63.517,9.606 C63.068,9.01 62.842,8.255 62.842,7.341 C62.842,6.186 63.284,5.286 64.17,4.643 C65.055,3.999 66.307,3.678 67.925,3.678 C68.738,3.678 69.501,3.768 70.216,3.947 C70.931,4.127 71.673,4.387 72.443,4.731 L71.289,7.495 C70.724,7.239 70.125,7.022 69.493,6.843 C68.862,6.664 68.347,6.574 67.947,6.574 C67.251,6.574 66.903,6.746 66.903,7.09 C66.903,7.302 67.024,7.483 67.267,7.633 C67.51,7.782 68.212,8.088 69.373,8.548 C70.236,8.906 70.88,9.258 71.305,9.602 C71.73,9.946 72.041,10.349 72.241,10.814 C72.441,11.277 72.541,11.843 72.541,12.508 L72.541,12.508 Z"></path>
                    <path d="M79.605,13.154 C80.178,13.154 80.864,13.011 81.663,12.726 L81.663,15.852 C81.09,16.101 80.544,16.279 80.024,16.384 C79.505,16.489 78.898,16.543 78.202,16.543 C76.772,16.543 75.742,16.19 75.11,15.484 C74.479,14.779 74.164,13.695 74.164,12.232 L74.164,7.11 L72.673,7.11 L72.673,5.367 L74.567,4.017 L75.667,1.407 L78.453,1.407 L78.453,3.897 L81.478,3.897 L81.478,7.11 L78.453,7.11 L78.453,11.947 C78.452,12.753 78.837,13.154 79.605,13.154 L79.605,13.154 Z"></path>
                </g>
                <path d="M59.6777344,46.1953125 L50,46.1953125 L50,44.4570312 L53.6816406,40.7558594 C54.7688856,39.6425726 55.4899071,38.8531924 55.8447266,38.3876953 C56.199546,37.9221982 56.4583325,37.4843771 56.6210938,37.0742188 C56.783855,36.6640604 56.8652344,36.2246117 56.8652344,35.7558594 C56.8652344,35.1113249 56.6715514,34.6035175 56.2841797,34.2324219 C55.896808,33.8613263 55.3613315,33.6757812 54.6777344,33.6757812 C54.1308566,33.6757812 53.6018906,33.7766917 53.0908203,33.9785156 C52.57975,34.1803396 51.9889356,34.5449192 51.3183594,35.0722656 L50.078125,33.5585938 C50.8723998,32.8880175 51.6438765,32.4127618 52.3925781,32.1328125 C53.1412798,31.8528632 53.9387979,31.7128906 54.7851562,31.7128906 C56.1132879,31.7128906 57.1777304,32.0595668 57.9785156,32.7529297 C58.7793009,33.4462925 59.1796875,34.3789004 59.1796875,35.5507812 C59.1796875,36.1953157 59.0641288,36.8072888 58.8330078,37.3867188 C58.6018869,37.9661487 58.2470727,38.5634735 57.7685547,39.1787109 C57.2900367,39.7939484 56.4941462,40.6256458 55.3808594,41.6738281 L52.9003906,44.0761719 L52.9003906,44.1738281 L59.6777344,44.1738281 L59.6777344,46.1953125 Z M70.79375,39.0566406 C70.79375,41.5371218 70.394991,43.3795513 69.5974609,44.5839844 C68.7999309,45.7884175 67.5808676,46.390625 65.9402344,46.390625 C64.3516848,46.390625 63.1472697,45.7688864 62.3269531,44.5253906 C61.5066365,43.2818948 61.0964844,41.4589964 61.0964844,39.0566406 C61.0964844,36.5370968 61.4952434,34.680019 62.2927734,33.4853516 C63.0903035,32.2906841 64.3061116,31.6933594 65.9402344,31.6933594 C67.5352944,31.6933594 68.7429646,32.3183531 69.5632812,33.5683594 C70.3835978,34.8183656 70.79375,36.6477744 70.79375,39.0566406 L70.79375,39.0566406 Z M63.4207031,39.0566406 C63.4207031,41.0032649 63.6208964,42.393225 64.0212891,43.2265625 C64.4216817,44.0599 65.0613237,44.4765625 65.9402344,44.4765625 C66.819145,44.4765625 67.4620422,44.0533896 67.8689453,43.2070312 C68.2758484,42.3606729 68.4792969,40.9772231 68.4792969,39.0566406 C68.4792969,37.1425686 68.2758484,35.7574913 67.8689453,34.9013672 C67.4620422,34.0452431 66.819145,33.6171875 65.9402344,33.6171875 C65.0613237,33.6171875 64.4216817,34.0371052 64.0212891,34.8769531 C63.6208964,35.7168011 63.4207031,37.1100163 63.4207031,39.0566406 L63.4207031,39.0566406 Z M78.9703125,46.1953125 L76.6753906,46.1953125 L76.6753906,36.9765625 C76.6753906,35.8762966 76.701432,35.0039095 76.7535156,34.359375 C76.6037753,34.5156258 76.4198578,34.6881501 76.2017578,34.8769531 C75.9836577,35.0657562 75.2528708,35.6647085 74.009375,36.6738281 L72.8570312,35.21875 L77.05625,31.9179688 L78.9703125,31.9179688 L78.9703125,46.1953125 Z M83.3871093,40.1113281 C83.3871093,34.5253627 85.6624772,31.7324219 90.2132812,31.7324219 C90.9294306,31.7324219 91.5348933,31.7877599 92.0296875,31.8984375 L92.0296875,33.8125 C91.5348933,33.6692701 90.9619824,33.5976562 90.3109375,33.5976562 C88.7809819,33.5976562 87.6319048,34.0078084 86.8636718,34.828125 C86.0954388,35.6484416 85.6787763,36.9635326 85.6136718,38.7734375 L85.7308593,38.7734375 C86.0368505,38.2460911 86.4665337,37.8375666 87.0199218,37.5478516 C87.57331,37.2581366 88.2243452,37.1132812 88.9730468,37.1132812 C90.2686262,37.1132812 91.2777307,37.5104127 92.0003906,38.3046875 C92.7230505,39.0989623 93.084375,40.1764255 93.084375,41.5371094 C93.084375,43.0345127 92.6660849,44.2177691 91.8294922,45.0869141 C90.9928994,45.956059 89.8519603,46.390625 88.4066406,46.390625 C87.3845001,46.390625 86.4958371,46.1448592 85.740625,45.6533203 C84.9854129,45.1617814 84.404364,44.4456427 83.9974609,43.5048828 C83.5905578,42.5641229 83.3871093,41.4329493 83.3871093,40.1113281 L83.3871093,40.1113281 Z M88.3675781,44.4960938 C89.1553424,44.4960938 89.7624327,44.24219 90.1888672,43.734375 C90.6153016,43.22656 90.8285156,42.5006558 90.8285156,41.5566406 C90.8285156,40.736324 90.6283223,40.0917992 90.2279297,39.6230469 C89.827537,39.1542945 89.2269571,38.9199219 88.4261718,38.9199219 C87.9313777,38.9199219 87.4756531,39.0257151 87.0589843,39.2373047 C86.6423156,39.4488943 86.3135428,39.7386049 86.0726562,40.1064453 C85.8317696,40.4742857 85.7113281,40.8502585 85.7113281,41.234375 C85.7113281,42.1523483 85.960349,42.9254526 86.4583984,43.5537109 C86.9564478,44.1819693 87.5928346,44.4960938 88.3675781,44.4960938 L88.3675781,44.4960938 Z M106.439453,33.7148438 C105.098301,33.7148438 104.043624,34.1900994 103.275391,35.140625 C102.507158,36.0911506 102.123047,37.4029864 102.123047,39.0761719 C102.123047,40.8274827 102.492509,42.1523393 103.231445,43.0507812 C103.970381,43.9492232 105.039706,44.3984375 106.439453,44.3984375 C107.044925,44.3984375 107.630856,44.3382167 108.197266,44.2177734 C108.763675,44.0973301 109.352861,43.9427093 109.964844,43.7539062 L109.964844,45.7558594 C108.845046,46.1790386 107.575528,46.390625 106.15625,46.390625 C104.066396,46.390625 102.461594,45.7574933 101.341797,44.4912109 C100.222,43.2249286 99.6621093,41.4134232 99.6621093,39.0566406 C99.6621093,37.5722582 99.9339165,36.2734431 100.477539,35.1601562 C101.021162,34.0468694 101.807286,33.1940134 102.835937,32.6015625 C103.864588,32.0091116 105.072259,31.7128906 106.458984,31.7128906 C107.917325,31.7128906 109.264968,32.0188771 110.501953,32.6308594 L109.662109,34.5742188 C109.180336,34.346353 108.670901,34.1461597 108.133789,33.9736328 C107.596677,33.8011059 107.031904,33.7148438 106.439453,33.7148438 L106.439453,33.7148438 Z M121.998828,46.1953125 L119.694141,46.1953125 L119.694141,39.5546875 C119.694141,38.72135 119.526499,38.0996114 119.191211,37.6894531 C118.855923,37.2792948 118.323701,37.0742188 117.594531,37.0742188 C116.630985,37.0742188 115.922984,37.3623018 115.470508,37.9384766 C115.018032,38.5146513 114.791797,39.4798109 114.791797,40.8339844 L114.791797,46.1953125 L112.496875,46.1953125 L112.496875,31 L114.791797,31 L114.791797,34.8574219 C114.791797,35.4759146 114.752735,36.1367152 114.674609,36.8398438 L114.821094,36.8398438 C115.133595,36.3190078 115.568161,35.915366 116.124805,35.6289062 C116.681448,35.3424465 117.330856,35.1992188 118.073047,35.1992188 C120.690247,35.1992188 121.998828,36.5175649 121.998828,39.1542969 L121.998828,46.1953125 Z M129.608984,46.390625 C127.929288,46.390625 126.615825,45.900721 125.668555,44.9208984 C124.721284,43.9410758 124.247656,42.5918055 124.247656,40.8730469 C124.247656,39.1087151 124.687105,37.7220103 125.566016,36.7128906 C126.444926,35.703771 127.652596,35.1992188 129.189062,35.1992188 C130.614851,35.1992188 131.741142,35.6321571 132.567969,36.4980469 C133.394796,37.3639366 133.808203,38.555331 133.808203,40.0722656 L133.808203,41.3125 L126.610937,41.3125 C126.64349,42.3606823 126.92669,43.1663383 127.460547,43.7294922 C127.994404,44.292646 128.746349,44.5742188 129.716406,44.5742188 C130.35443,44.5742188 130.9485,44.513998 131.498633,44.3935547 C132.048766,44.2731114 132.63958,44.0729181 133.271094,43.7929688 L133.271094,45.6582031 C132.711195,45.9251315 132.144794,46.1139317 131.571875,46.2246094 C130.998955,46.335287 130.344665,46.390625 129.608984,46.390625 L129.608984,46.390625 Z M129.189062,36.9375 C128.459892,36.9375 127.875588,37.1686175 127.436133,37.6308594 C126.996677,38.0931013 126.734636,38.7669227 126.65,39.6523438 L131.552344,39.6523438 C131.539323,38.7604122 131.324481,38.0849632 130.907812,37.6259766 C130.491144,37.1669899 129.918233,36.9375 129.189062,36.9375 L129.189062,36.9375 Z M145.617578,46.1953125 L143.312891,46.1953125 L143.312891,39.5546875 C143.312891,38.72135 143.145249,38.0996114 142.809961,37.6894531 C142.474673,37.2792948 141.942451,37.0742188 141.213281,37.0742188 C140.243224,37.0742188 139.533596,37.3606742 139.084375,37.9335938 C138.635154,38.5065133 138.410547,39.4667901 138.410547,40.8144531 L138.410547,46.1953125 L136.115625,46.1953125 L136.115625,35.3945312 L137.9125,35.3945312 L138.234766,36.8105469 L138.351953,36.8105469 C138.677475,36.2962214 139.13971,35.8990899 139.738672,35.6191406 C140.337633,35.3391913 141.001689,35.1992188 141.730859,35.1992188 C144.322018,35.1992188 145.617578,36.5175649 145.617578,39.1542969 L145.617578,46.1953125 Z M158.012891,46.1953125 L155.708203,46.1953125 L155.708203,39.5546875 C155.708203,38.72135 155.540561,38.0996114 155.205273,37.6894531 C154.869985,37.2792948 154.337764,37.0742188 153.608594,37.0742188 C152.638537,37.0742188 151.928908,37.3606742 151.479687,37.9335938 C151.030466,38.5065133 150.805859,39.4667901 150.805859,40.8144531 L150.805859,46.1953125 L148.510937,46.1953125 L148.510937,35.3945312 L150.307812,35.3945312 L150.630078,36.8105469 L150.747266,36.8105469 C151.072788,36.2962214 151.535023,35.8990899 152.133984,35.6191406 C152.732946,35.3391913 153.397001,35.1992188 154.126172,35.1992188 C156.717331,35.1992188 158.012891,36.5175649 158.012891,39.1542969 L158.012891,46.1953125 Z M167.664062,46.1953125 L167.205078,44.6914062 L167.126953,44.6914062 C166.606117,45.3489616 166.082034,45.7965483 165.554687,46.0341797 C165.027341,46.2718111 164.350264,46.390625 163.523437,46.390625 C162.462234,46.390625 161.633792,46.1041695 161.038086,45.53125 C160.44238,44.9583305 160.144531,44.1477917 160.144531,43.0996094 C160.144531,41.9863226 160.557938,41.1464872 161.384766,40.5800781 C162.211593,40.013669 163.471346,39.7044273 165.164062,39.6523438 L167.029297,39.59375 L167.029297,39.0175781 C167.029297,38.3274705 166.868166,37.8115251 166.545898,37.4697266 C166.223631,37.127928 165.723962,36.9570312 165.046875,36.9570312 C164.493487,36.9570312 163.962893,37.0384106 163.455078,37.2011719 C162.947263,37.3639331 162.458987,37.5559885 161.990234,37.7773438 L161.248047,36.1367188 C161.833987,35.8307276 162.475257,35.5979826 163.171875,35.4384766 C163.868493,35.2789706 164.526038,35.1992188 165.144531,35.1992188 C166.518236,35.1992188 167.555009,35.4986949 168.254883,36.0976562 C168.954756,36.6966176 169.304687,37.6373634 169.304687,38.9199219 L169.304687,46.1953125 L167.664062,46.1953125 Z M164.246094,44.6328125 C165.079431,44.6328125 165.74837,44.4000674 166.25293,43.9345703 C166.757489,43.4690732 167.009766,42.8164104 167.009766,41.9765625 L167.009766,41.0390625 L165.623047,41.0976562 C164.542312,41.1367189 163.756187,41.3173812 163.264648,41.6396484 C162.773109,41.9619157 162.527344,42.4550748 162.527344,43.1191406 C162.527344,43.6009139 162.670571,43.9736315 162.957031,44.2373047 C163.243491,44.5009779 163.673174,44.6328125 164.246094,44.6328125 L164.246094,44.6328125 Z M174.502734,46.1953125 L172.207812,46.1953125 L172.207812,35.3945312 L174.502734,35.3945312 L174.502734,46.1953125 Z M172.071094,32.5332031 C172.071094,32.1230448 172.183397,31.8072928 172.408008,31.5859375 C172.632618,31.3645822 172.953253,31.2539062 173.369922,31.2539062 C173.77357,31.2539062 174.087694,31.3645822 174.312305,31.5859375 C174.536915,31.8072928 174.649219,32.1230448 174.649219,32.5332031 C174.649219,32.9238301 174.536915,33.2314442 174.312305,33.4560547 C174.087694,33.6806652 173.77357,33.7929688 173.369922,33.7929688 C172.953253,33.7929688 172.632618,33.6806652 172.408008,33.4560547 C172.183397,33.2314442 172.071094,32.9238301 172.071094,32.5332031 L172.071094,32.5332031 Z" id="2016-Chennai" fill="#4E4E4E"></path>
                <g transform="translate(48.000000, 9.000000)" id="Shape" fill="#4E4E4E">
                    <path d="M7.571,7.313 L14.493,7.313 L14.493,15.957 C12.614,16.601 10.548,16.923 8.295,16.923 C5.823,16.923 3.913,16.206 2.564,14.773 C1.215,13.34 0.54,11.296 0.54,8.641 C0.54,6.052 1.279,4.038 2.756,2.597 C4.233,1.157 6.303,0.436 8.964,0.436 C9.973,0.436 10.926,0.532 11.822,0.721 C12.718,0.911 13.498,1.153 14.164,1.446 L12.793,4.846 C11.637,4.276 10.369,3.991 8.986,3.991 C7.721,3.991 6.743,4.402 6.052,5.224 C5.361,6.047 5.015,7.223 5.015,8.751 C5.015,10.25 5.328,11.393 5.953,12.179 C6.578,12.965 7.479,13.358 8.657,13.358 C9.301,13.358 9.893,13.296 10.434,13.171 L10.434,10.659 L7.571,10.659 L7.571,7.313 L7.571,7.313 Z"></path>
                    <path d="M30.026,8.344 C30.026,11.021 29.289,13.083 27.816,14.531 C26.342,15.979 24.271,16.703 21.602,16.703 L16.414,16.703 L16.414,0.665 L21.965,0.665 C24.539,0.665 26.526,1.323 27.926,2.64 C29.326,3.957 30.026,5.857 30.026,8.344 L30.026,8.344 Z M25.529,8.497 C25.529,7.027 25.238,5.937 24.657,5.228 C24.076,4.519 23.193,4.165 22.008,4.165 L20.746,4.165 L20.746,13.148 L21.711,13.148 C23.027,13.148 23.993,12.766 24.607,12.002 C25.222,11.238 25.529,10.069 25.529,8.497 L25.529,8.497 Z"></path>
                    <path d="M37.991,7.313 L44.913,7.313 L44.913,15.957 C43.034,16.601 40.968,16.923 38.715,16.923 C36.243,16.923 34.333,16.206 32.984,14.773 C31.635,13.34 30.96,11.296 30.96,8.641 C30.96,6.052 31.699,4.038 33.176,2.597 C34.653,1.157 36.723,0.436 39.384,0.436 C40.393,0.436 41.346,0.532 42.242,0.721 C43.138,0.911 43.918,1.153 44.584,1.446 L43.213,4.846 C42.057,4.276 40.789,3.991 39.406,3.991 C38.141,3.991 37.163,4.402 36.472,5.224 C35.781,6.047 35.435,7.223 35.435,8.751 C35.435,10.25 35.748,11.393 36.373,12.179 C36.998,12.965 37.899,13.358 39.077,13.358 C39.721,13.358 40.313,13.296 40.854,13.171 L40.854,10.659 L37.991,10.659 L37.991,7.313 L37.991,7.313 Z"></path>
                </g>
                <path d="M8.91,60 L15.701,60 C17.308,60 19.305,58.872 20.133,57.489 L25.853,47.97 C26.53,46.574 26.506,44.544 25.734,43.257 L22.356,37.665 L8.91,60 L8.91,60 Z" id="Shape" fill="url(#radialGradient-5)"></path>
                <path d="M16.209,32.514 L1.108,57.763 C0.524,59.011 1.131,60 2.629,60 L8.91,60 L22.356,37.665 L16.21,27.492 C17.039,28.87 17.039,31.13 16.209,32.514" id="Shape" fill="url(#radialGradient-6)"></path>
                <path d="M2.629,0 C1.016,0 0.375,1.133 1.205,2.511 L25.734,43.256 C26.506,44.544 26.529,46.573 25.853,47.969 L31.816,38.044 L8.914,0 L2.629,0 L2.629,0 Z" id="Shape" fill="url(#radialGradient-7)"></path>
                <path d="M8.914,0 L31.817,38.045 L35.138,32.515 C35.968,31.13 35.968,28.87 35.138,27.492 L20.134,2.512 C19.305,1.133 17.308,0 15.701,0 L8.914,0 L8.914,0 Z" id="Shape" fill="url(#radialGradient-8)"></path>
            </g>
            <g id="Group" transform="translate(1.000000, 126.000000)">
                <g transform="translate(101.000000, 9.000000)" id="Shape" fill="#E6E6E5">
                    <path d="M14.071,7.967 C14.071,10.643 13.34,12.705 11.878,14.153 C10.416,15.601 8.36,16.325 5.712,16.325 L0.564,16.325 L0.564,0.29 L6.071,0.29 C8.625,0.29 10.597,0.948 11.987,2.265 C13.377,3.582 14.071,5.48 14.071,7.967 L14.071,7.967 Z M9.608,8.12 C9.608,6.65 9.319,5.561 8.742,4.851 C8.165,4.142 7.289,3.788 6.114,3.788 L4.863,3.788 L4.863,12.77 L5.821,12.77 C7.127,12.77 8.085,12.388 8.695,11.624 C9.303,10.86 9.608,9.692 9.608,8.12 L9.608,8.12 Z"></path>
                    <path d="M21.287,16.544 C19.234,16.544 17.641,15.993 16.505,14.893 C15.369,13.793 14.801,12.226 14.801,10.194 C14.801,8.095 15.327,6.485 16.379,5.363 C17.431,4.24 18.933,3.679 20.884,3.679 C22.741,3.679 24.177,4.166 25.189,5.143 C26.201,6.12 26.709,7.525 26.709,9.36 L26.709,11.269 L19.1,11.269 C19.129,11.963 19.381,12.508 19.858,12.903 C20.333,13.298 20.979,13.495 21.799,13.495 C22.547,13.495 23.235,13.424 23.862,13.281 C24.491,13.138 25.171,12.896 25.903,12.552 L25.903,15.633 C25.235,15.977 24.546,16.215 23.835,16.346 C23.123,16.478 22.275,16.544 21.287,16.544 L21.287,16.544 Z M21.037,6.596 C20.537,6.596 20.117,6.755 19.781,7.074 C19.443,7.391 19.244,7.89 19.187,8.571 L22.843,8.571 C22.829,7.971 22.659,7.492 22.337,7.133 C22.016,6.775 21.582,6.596 21.037,6.596 L21.037,6.596 Z"></path>
                    <path d="M31.009,16.324 L26.307,3.897 L30.747,3.897 L32.837,11.246 C32.845,11.283 32.859,11.345 32.881,11.433 C32.903,11.521 32.924,11.625 32.946,11.746 C32.967,11.867 32.987,11.995 33.006,12.13 C33.024,12.266 33.033,12.392 33.033,12.509 L33.109,12.509 C33.109,12.128 33.174,11.715 33.304,11.27 L35.492,3.899 L39.922,3.899 L35.22,16.326 L31.009,16.326 L31.009,16.324 Z"></path>
                    <polygon points="44.539 16.324 40.305 16.324 40.305 0.289 49.709 0.289 49.709 3.767 44.539 3.767 44.539 6.827 49.306 6.827 49.306 10.304 44.539 10.304"></polygon>
                    <path d="M56.687,16.544 C54.633,16.544 53.04,15.993 51.904,14.893 C50.768,13.793 50.201,12.226 50.201,10.194 C50.201,8.095 50.726,6.485 51.779,5.363 C52.831,4.24 54.333,3.679 56.285,3.679 C58.142,3.679 59.577,4.166 60.59,5.143 C61.602,6.12 62.109,7.525 62.109,9.36 L62.109,11.269 L54.501,11.269 C54.53,11.963 54.782,12.508 55.258,12.903 C55.733,13.298 56.38,13.495 57.2,13.495 C57.947,13.495 58.635,13.424 59.263,13.281 C59.891,13.138 60.571,12.896 61.304,12.552 L61.304,15.633 C60.636,15.977 59.947,16.215 59.236,16.346 C58.522,16.478 57.674,16.544 56.687,16.544 L56.687,16.544 Z M56.437,6.596 C55.936,6.596 55.517,6.755 55.18,7.074 C54.842,7.391 54.644,7.89 54.586,8.571 L58.243,8.571 C58.228,7.971 58.059,7.492 57.737,7.133 C57.414,6.775 56.98,6.596 56.437,6.596 L56.437,6.596 Z"></path>
                    <path d="M72.699,12.508 C72.699,13.838 72.249,14.844 71.349,15.524 C70.449,16.204 69.158,16.545 67.474,16.545 C66.56,16.545 65.765,16.495 65.09,16.397 C64.415,16.299 63.726,16.118 63.023,15.854 L63.023,12.421 C63.683,12.713 64.407,12.954 65.194,13.145 C65.981,13.336 66.683,13.43 67.3,13.43 C68.221,13.43 68.682,13.218 68.682,12.794 C68.682,12.574 68.553,12.379 68.296,12.207 C68.038,12.035 67.289,11.7 66.048,11.203 C64.916,10.735 64.125,10.203 63.675,9.607 C63.226,9.011 63,8.256 63,7.342 C63,6.187 63.442,5.287 64.328,4.644 C65.213,4 66.465,3.679 68.083,3.679 C68.896,3.679 69.659,3.768 70.374,3.948 C71.089,4.127 71.831,4.388 72.601,4.732 L71.447,7.496 C70.882,7.24 70.283,7.022 69.651,6.844 C69.02,6.664 68.505,6.575 68.105,6.575 C67.409,6.575 67.061,6.747 67.061,7.091 C67.061,7.303 67.182,7.484 67.425,7.633 C67.668,7.783 68.37,8.089 69.531,8.549 C70.394,8.907 71.038,9.259 71.463,9.602 C71.888,9.946 72.199,10.35 72.399,10.814 C72.6,11.277 72.699,11.842 72.699,12.508 L72.699,12.508 Z"></path>
                    <path d="M79.764,13.154 C80.337,13.154 81.023,13.011 81.822,12.726 L81.822,15.852 C81.249,16.101 80.703,16.278 80.183,16.384 C79.664,16.489 79.057,16.543 78.361,16.543 C76.931,16.543 75.901,16.189 75.269,15.484 C74.638,14.778 74.323,13.694 74.323,12.232 L74.323,7.11 L72.832,7.11 L72.832,5.366 L74.726,4.017 L75.826,1.407 L78.612,1.407 L78.612,3.896 L81.637,3.896 L81.637,7.11 L78.612,7.11 L78.612,11.947 C78.61,12.753 78.995,13.154 79.764,13.154 L79.764,13.154 Z"></path>
                </g>
                <path d="M59.6777344,46.1953125 L50,46.1953125 L50,44.4570312 L53.6816406,40.7558594 C54.7688856,39.6425726 55.4899071,38.8531924 55.8447266,38.3876953 C56.199546,37.9221982 56.4583325,37.4843771 56.6210938,37.0742188 C56.783855,36.6640604 56.8652344,36.2246117 56.8652344,35.7558594 C56.8652344,35.1113249 56.6715514,34.6035175 56.2841797,34.2324219 C55.896808,33.8613263 55.3613315,33.6757812 54.6777344,33.6757812 C54.1308566,33.6757812 53.6018906,33.7766917 53.0908203,33.9785156 C52.57975,34.1803396 51.9889356,34.5449192 51.3183594,35.0722656 L50.078125,33.5585938 C50.8723998,32.8880175 51.6438765,32.4127618 52.3925781,32.1328125 C53.1412798,31.8528632 53.9387979,31.7128906 54.7851562,31.7128906 C56.1132879,31.7128906 57.1777304,32.0595668 57.9785156,32.7529297 C58.7793009,33.4462925 59.1796875,34.3789004 59.1796875,35.5507812 C59.1796875,36.1953157 59.0641288,36.8072888 58.8330078,37.3867188 C58.6018869,37.9661487 58.2470727,38.5634735 57.7685547,39.1787109 C57.2900367,39.7939484 56.4941462,40.6256458 55.3808594,41.6738281 L52.9003906,44.0761719 L52.9003906,44.1738281 L59.6777344,44.1738281 L59.6777344,46.1953125 Z M70.79375,39.0566406 C70.79375,41.5371218 70.394991,43.3795513 69.5974609,44.5839844 C68.7999309,45.7884175 67.5808676,46.390625 65.9402344,46.390625 C64.3516848,46.390625 63.1472697,45.7688864 62.3269531,44.5253906 C61.5066365,43.2818948 61.0964844,41.4589964 61.0964844,39.0566406 C61.0964844,36.5370968 61.4952434,34.680019 62.2927734,33.4853516 C63.0903035,32.2906841 64.3061116,31.6933594 65.9402344,31.6933594 C67.5352944,31.6933594 68.7429646,32.3183531 69.5632812,33.5683594 C70.3835978,34.8183656 70.79375,36.6477744 70.79375,39.0566406 L70.79375,39.0566406 Z M63.4207031,39.0566406 C63.4207031,41.0032649 63.6208964,42.393225 64.0212891,43.2265625 C64.4216817,44.0599 65.0613237,44.4765625 65.9402344,44.4765625 C66.819145,44.4765625 67.4620422,44.0533896 67.8689453,43.2070312 C68.2758484,42.3606729 68.4792969,40.9772231 68.4792969,39.0566406 C68.4792969,37.1425686 68.2758484,35.7574913 67.8689453,34.9013672 C67.4620422,34.0452431 66.819145,33.6171875 65.9402344,33.6171875 C65.0613237,33.6171875 64.4216817,34.0371052 64.0212891,34.8769531 C63.6208964,35.7168011 63.4207031,37.1100163 63.4207031,39.0566406 L63.4207031,39.0566406 Z M78.9703125,46.1953125 L76.6753906,46.1953125 L76.6753906,36.9765625 C76.6753906,35.8762966 76.701432,35.0039095 76.7535156,34.359375 C76.6037753,34.5156258 76.4198578,34.6881501 76.2017578,34.8769531 C75.9836577,35.0657562 75.2528708,35.6647085 74.009375,36.6738281 L72.8570312,35.21875 L77.05625,31.9179688 L78.9703125,31.9179688 L78.9703125,46.1953125 Z M83.3871093,40.1113281 C83.3871093,34.5253627 85.6624772,31.7324219 90.2132812,31.7324219 C90.9294306,31.7324219 91.5348933,31.7877599 92.0296875,31.8984375 L92.0296875,33.8125 C91.5348933,33.6692701 90.9619824,33.5976562 90.3109375,33.5976562 C88.7809819,33.5976562 87.6319048,34.0078084 86.8636718,34.828125 C86.0954388,35.6484416 85.6787763,36.9635326 85.6136718,38.7734375 L85.7308593,38.7734375 C86.0368505,38.2460911 86.4665337,37.8375666 87.0199218,37.5478516 C87.57331,37.2581366 88.2243452,37.1132812 88.9730468,37.1132812 C90.2686262,37.1132812 91.2777307,37.5104127 92.0003906,38.3046875 C92.7230505,39.0989623 93.084375,40.1764255 93.084375,41.5371094 C93.084375,43.0345127 92.6660849,44.2177691 91.8294922,45.0869141 C90.9928994,45.956059 89.8519603,46.390625 88.4066406,46.390625 C87.3845001,46.390625 86.4958371,46.1448592 85.740625,45.6533203 C84.9854129,45.1617814 84.404364,44.4456427 83.9974609,43.5048828 C83.5905578,42.5641229 83.3871093,41.4329493 83.3871093,40.1113281 L83.3871093,40.1113281 Z M88.3675781,44.4960938 C89.1553424,44.4960938 89.7624327,44.24219 90.1888672,43.734375 C90.6153016,43.22656 90.8285156,42.5006558 90.8285156,41.5566406 C90.8285156,40.736324 90.6283223,40.0917992 90.2279297,39.6230469 C89.827537,39.1542945 89.2269571,38.9199219 88.4261718,38.9199219 C87.9313777,38.9199219 87.4756531,39.0257151 87.0589843,39.2373047 C86.6423156,39.4488943 86.3135428,39.7386049 86.0726562,40.1064453 C85.8317696,40.4742857 85.7113281,40.8502585 85.7113281,41.234375 C85.7113281,42.1523483 85.960349,42.9254526 86.4583984,43.5537109 C86.9564478,44.1819693 87.5928346,44.4960938 88.3675781,44.4960938 L88.3675781,44.4960938 Z M106.439453,33.7148438 C105.098301,33.7148438 104.043624,34.1900994 103.275391,35.140625 C102.507158,36.0911506 102.123047,37.4029864 102.123047,39.0761719 C102.123047,40.8274827 102.492509,42.1523393 103.231445,43.0507812 C103.970381,43.9492232 105.039706,44.3984375 106.439453,44.3984375 C107.044925,44.3984375 107.630856,44.3382167 108.197266,44.2177734 C108.763675,44.0973301 109.352861,43.9427093 109.964844,43.7539062 L109.964844,45.7558594 C108.845046,46.1790386 107.575528,46.390625 106.15625,46.390625 C104.066396,46.390625 102.461594,45.7574933 101.341797,44.4912109 C100.222,43.2249286 99.6621093,41.4134232 99.6621093,39.0566406 C99.6621093,37.5722582 99.9339165,36.2734431 100.477539,35.1601562 C101.021162,34.0468694 101.807286,33.1940134 102.835937,32.6015625 C103.864588,32.0091116 105.072259,31.7128906 106.458984,31.7128906 C107.917325,31.7128906 109.264968,32.0188771 110.501953,32.6308594 L109.662109,34.5742188 C109.180336,34.346353 108.670901,34.1461597 108.133789,33.9736328 C107.596677,33.8011059 107.031904,33.7148438 106.439453,33.7148438 L106.439453,33.7148438 Z M121.998828,46.1953125 L119.694141,46.1953125 L119.694141,39.5546875 C119.694141,38.72135 119.526499,38.0996114 119.191211,37.6894531 C118.855923,37.2792948 118.323701,37.0742188 117.594531,37.0742188 C116.630985,37.0742188 115.922984,37.3623018 115.470508,37.9384766 C115.018032,38.5146513 114.791797,39.4798109 114.791797,40.8339844 L114.791797,46.1953125 L112.496875,46.1953125 L112.496875,31 L114.791797,31 L114.791797,34.8574219 C114.791797,35.4759146 114.752735,36.1367152 114.674609,36.8398438 L114.821094,36.8398438 C115.133595,36.3190078 115.568161,35.915366 116.124805,35.6289062 C116.681448,35.3424465 117.330856,35.1992188 118.073047,35.1992188 C120.690247,35.1992188 121.998828,36.5175649 121.998828,39.1542969 L121.998828,46.1953125 Z M129.608984,46.390625 C127.929288,46.390625 126.615825,45.900721 125.668555,44.9208984 C124.721284,43.9410758 124.247656,42.5918055 124.247656,40.8730469 C124.247656,39.1087151 124.687105,37.7220103 125.566016,36.7128906 C126.444926,35.703771 127.652596,35.1992188 129.189062,35.1992188 C130.614851,35.1992188 131.741142,35.6321571 132.567969,36.4980469 C133.394796,37.3639366 133.808203,38.555331 133.808203,40.0722656 L133.808203,41.3125 L126.610937,41.3125 C126.64349,42.3606823 126.92669,43.1663383 127.460547,43.7294922 C127.994404,44.292646 128.746349,44.5742188 129.716406,44.5742188 C130.35443,44.5742188 130.9485,44.513998 131.498633,44.3935547 C132.048766,44.2731114 132.63958,44.0729181 133.271094,43.7929688 L133.271094,45.6582031 C132.711195,45.9251315 132.144794,46.1139317 131.571875,46.2246094 C130.998955,46.335287 130.344665,46.390625 129.608984,46.390625 L129.608984,46.390625 Z M129.189062,36.9375 C128.459892,36.9375 127.875588,37.1686175 127.436133,37.6308594 C126.996677,38.0931013 126.734636,38.7669227 126.65,39.6523438 L131.552344,39.6523438 C131.539323,38.7604122 131.324481,38.0849632 130.907812,37.6259766 C130.491144,37.1669899 129.918233,36.9375 129.189062,36.9375 L129.189062,36.9375 Z M145.617578,46.1953125 L143.312891,46.1953125 L143.312891,39.5546875 C143.312891,38.72135 143.145249,38.0996114 142.809961,37.6894531 C142.474673,37.2792948 141.942451,37.0742188 141.213281,37.0742188 C140.243224,37.0742188 139.533596,37.3606742 139.084375,37.9335938 C138.635154,38.5065133 138.410547,39.4667901 138.410547,40.8144531 L138.410547,46.1953125 L136.115625,46.1953125 L136.115625,35.3945312 L137.9125,35.3945312 L138.234766,36.8105469 L138.351953,36.8105469 C138.677475,36.2962214 139.13971,35.8990899 139.738672,35.6191406 C140.337633,35.3391913 141.001689,35.1992188 141.730859,35.1992188 C144.322018,35.1992188 145.617578,36.5175649 145.617578,39.1542969 L145.617578,46.1953125 Z M158.012891,46.1953125 L155.708203,46.1953125 L155.708203,39.5546875 C155.708203,38.72135 155.540561,38.0996114 155.205273,37.6894531 C154.869985,37.2792948 154.337764,37.0742188 153.608594,37.0742188 C152.638537,37.0742188 151.928908,37.3606742 151.479687,37.9335938 C151.030466,38.5065133 150.805859,39.4667901 150.805859,40.8144531 L150.805859,46.1953125 L148.510937,46.1953125 L148.510937,35.3945312 L150.307812,35.3945312 L150.630078,36.8105469 L150.747266,36.8105469 C151.072788,36.2962214 151.535023,35.8990899 152.133984,35.6191406 C152.732946,35.3391913 153.397001,35.1992188 154.126172,35.1992188 C156.717331,35.1992188 158.012891,36.5175649 158.012891,39.1542969 L158.012891,46.1953125 Z M167.664062,46.1953125 L167.205078,44.6914062 L167.126953,44.6914062 C166.606117,45.3489616 166.082034,45.7965483 165.554687,46.0341797 C165.027341,46.2718111 164.350264,46.390625 163.523437,46.390625 C162.462234,46.390625 161.633792,46.1041695 161.038086,45.53125 C160.44238,44.9583305 160.144531,44.1477917 160.144531,43.0996094 C160.144531,41.9863226 160.557938,41.1464872 161.384766,40.5800781 C162.211593,40.013669 163.471346,39.7044273 165.164062,39.6523438 L167.029297,39.59375 L167.029297,39.0175781 C167.029297,38.3274705 166.868166,37.8115251 166.545898,37.4697266 C166.223631,37.127928 165.723962,36.9570312 165.046875,36.9570312 C164.493487,36.9570312 163.962893,37.0384106 163.455078,37.2011719 C162.947263,37.3639331 162.458987,37.5559885 161.990234,37.7773438 L161.248047,36.1367188 C161.833987,35.8307276 162.475257,35.5979826 163.171875,35.4384766 C163.868493,35.2789706 164.526038,35.1992188 165.144531,35.1992188 C166.518236,35.1992188 167.555009,35.4986949 168.254883,36.0976562 C168.954756,36.6966176 169.304687,37.6373634 169.304687,38.9199219 L169.304687,46.1953125 L167.664062,46.1953125 Z M164.246094,44.6328125 C165.079431,44.6328125 165.74837,44.4000674 166.25293,43.9345703 C166.757489,43.4690732 167.009766,42.8164104 167.009766,41.9765625 L167.009766,41.0390625 L165.623047,41.0976562 C164.542312,41.1367189 163.756187,41.3173812 163.264648,41.6396484 C162.773109,41.9619157 162.527344,42.4550748 162.527344,43.1191406 C162.527344,43.6009139 162.670571,43.9736315 162.957031,44.2373047 C163.243491,44.5009779 163.673174,44.6328125 164.246094,44.6328125 L164.246094,44.6328125 Z M174.502734,46.1953125 L172.207812,46.1953125 L172.207812,35.3945312 L174.502734,35.3945312 L174.502734,46.1953125 Z M172.071094,32.5332031 C172.071094,32.1230448 172.183397,31.8072928 172.408008,31.5859375 C172.632618,31.3645822 172.953253,31.2539062 173.369922,31.2539062 C173.77357,31.2539062 174.087694,31.3645822 174.312305,31.5859375 C174.536915,31.8072928 174.649219,32.1230448 174.649219,32.5332031 C174.649219,32.9238301 174.536915,33.2314442 174.312305,33.4560547 C174.087694,33.6806652 173.77357,33.7929688 173.369922,33.7929688 C172.953253,33.7929688 172.632618,33.6806652 172.408008,33.4560547 C172.183397,33.2314442 172.071094,32.9238301 172.071094,32.5332031 L172.071094,32.5332031 Z" id="2016-Chennai" fill="#E6E6E5"></path>
                <g transform="translate(47.000000, 9.000000)" id="Shape" fill="#E6E6E5">
                    <path d="M7.729,7.313 L14.651,7.313 L14.651,15.957 C12.772,16.601 10.706,16.923 8.453,16.923 C5.981,16.923 4.071,16.206 2.722,14.773 C1.373,13.34 0.698,11.295 0.698,8.641 C0.698,6.052 1.437,4.037 2.914,2.597 C4.391,1.157 6.461,0.436 9.122,0.436 C10.131,0.436 11.084,0.532 11.98,0.721 C12.876,0.911 13.656,1.153 14.322,1.446 L12.951,4.846 C11.795,4.276 10.527,3.991 9.144,3.991 C7.879,3.991 6.901,4.402 6.21,5.224 C5.519,6.047 5.173,7.222 5.173,8.75 C5.173,10.25 5.486,11.393 6.111,12.179 C6.736,12.965 7.637,13.358 8.815,13.358 C9.459,13.358 10.051,13.296 10.592,13.171 L10.592,10.659 L7.729,10.659 L7.729,7.313 L7.729,7.313 Z"></path>
                    <path d="M30.185,8.345 C30.185,11.022 29.448,13.083 27.975,14.532 C26.502,15.981 24.43,16.704 21.761,16.704 L16.573,16.704 L16.573,0.667 L22.124,0.667 C24.698,0.667 26.685,1.325 28.085,2.642 C29.485,3.959 30.185,5.858 30.185,8.345 L30.185,8.345 Z M25.688,8.498 C25.688,7.028 25.397,5.938 24.816,5.229 C24.235,4.52 23.352,4.165 22.167,4.165 L20.905,4.165 L20.905,13.149 L21.87,13.149 C23.186,13.149 24.152,12.766 24.766,12.003 C25.38,11.238 25.688,10.07 25.688,8.498 L25.688,8.498 Z"></path>
                    <path d="M38.15,7.313 L45.072,7.313 L45.072,15.957 C43.193,16.601 41.127,16.923 38.874,16.923 C36.402,16.923 34.492,16.206 33.143,14.773 C31.794,13.34 31.119,11.295 31.119,8.641 C31.119,6.052 31.858,4.037 33.335,2.597 C34.812,1.157 36.882,0.436 39.543,0.436 C40.552,0.436 41.505,0.532 42.401,0.721 C43.297,0.911 44.077,1.153 44.743,1.446 L43.372,4.846 C42.216,4.276 40.948,3.991 39.565,3.991 C38.3,3.991 37.322,4.402 36.631,5.224 C35.94,6.047 35.594,7.222 35.594,8.75 C35.594,10.25 35.907,11.393 36.532,12.179 C37.157,12.965 38.058,13.358 39.236,13.358 C39.88,13.358 40.472,13.296 41.013,13.171 L41.013,10.659 L38.15,10.659 L38.15,7.313 L38.15,7.313 Z"></path>
                </g>
                <path d="M8.068,60 L14.859,60 C16.466,60 18.463,58.872 19.291,57.489 L25.011,47.97 C25.688,46.574 25.664,44.544 24.892,43.257 L21.514,37.665 L8.068,60 L8.068,60 Z" id="Shape" fill="url(#radialGradient-9)"></path>
                <path d="M15.368,32.514 L0.266,57.763 C-0.317,59.011 0.289,60 1.787,60 L8.068,60 L21.514,37.665 L15.368,27.492 C16.197,28.87 16.197,31.13 15.368,32.514" id="Shape" fill="url(#radialGradient-10)"></path>
                <path d="M1.787,0 C0.174,0 -0.467,1.133 0.363,2.511 L24.892,43.256 C25.664,44.544 25.687,46.573 25.011,47.969 L30.974,38.044 L8.072,0 L1.787,0 L1.787,0 Z" id="Shape" fill="url(#radialGradient-11)"></path>
                <path d="M8.072,0 L30.975,38.045 L34.296,32.515 C35.126,31.13 35.126,28.87 34.296,27.492 L19.292,2.511 C18.463,1.133 16.467,0 14.86,0 L8.072,0 L8.072,0 Z" id="Shape" fill="url(#radialGradient-12)"></path>
            </g>
        </g>
    </g>
</svg>